<?xml version="1.0" encoding="UTF-8"?>
<svg height="100%" width="100%" xmlns="http://www.w3.org/2000/svg">
	<defs>
		<font horiz-adv-x="0" id="web">
			<font-face alphabetic="0" ascent="2210" descent="-514" font-family="" panose-1="2 11 4 2 4 2 4 2 2 3" units-per-em="2048"/>
			<missing-glyph d="M166 1398H1156V0H166ZM314 1250V148H1008V1250Z" horiz-adv-x="1322"/>
			<glyph d="" horiz-adv-x="561" unicode=" "/>
			<glyph d="M219 1434H358L344 403H233ZM291 173Q310 173 327 166T357 146T379 115T387 77Q387 57 379 39T357 9T327 -11T291 -18Q251 -18 223 9T195 77Q195 118 223 145T291 173Z" horiz-adv-x="582" unicode="!"/>
			<glyph d="M460 1434H575V986H460ZM170 1434H285V986H170Z" horiz-adv-x="744" unicode="&quot;"/>
			<glyph d="M511 1434H614L528 1028H788L875 1434H977L890 1028H1159L1138 936H872L802 613H1085L1063 521H784L697 123H594L680 521H421L336 123H233L318 521H46L65 613H338L406 936H121L141 1028H425ZM510 936L439 613H700L770 936Z" horiz-adv-x="1223" unicode="#"/>
			<glyph d="M500 1615H591V1437Q679 1435 745 1420T857 1382V1251Q752 1321 591 1324V756Q689 707 755 661T861 568T918 472T935 363Q935 293 911 233T844 126T736 49T591 6V-209H500V0Q301 0 164 83V221Q197 196 237 176T321 141T411 119T500 112V667Q439 701 378 735T270 815T192 920T162 1065Q162 1139 187 1202T257 1313T364 1392T500 1434ZM500 1320Q405 1302 349 1239T294 1081Q294 1037 303 1001T336 934T399 871T500 807ZM591 617V117Q697 137 750 196T803 347Q803 387 791 422T755 489T689 553T591 617Z" horiz-adv-x="1079" unicode="$"/>
			<glyph d="M425 1459Q500 1459 560 1434T662 1362T726 1247T749 1094Q749 1013 724 945T656 827T549 750T410 722Q334 722 273 748T169 821T104 935T82 1082Q82 1171 107 1241T177 1359T285 1433T425 1459ZM421 1363Q369 1363 326 1344T255 1289T210 1202T194 1086Q194 961 252 889T416 817Q469 817 510 836T579 892T622 979T637 1093Q637 1224 579 1293T421 1363ZM1201 1433H1321L431 -21H310ZM1244 715Q1319 715 1379 690T1481 618T1545 502T1568 348Q1568 267 1543 199T1475 81T1368 4T1229 -23Q1154 -23 1093 3T989 76T924 189T901 337Q901 425 926 495T996 614T1104 689T1244 715ZM1240 617Q1188 617 1146 598T1074 543T1029 456T1013 340Q1013 278 1028 228T1072 143T1142 90T1235 72Q1287 72 1328 91T1397 146T1441 233T1457 348Q1457 480 1399 548T1240 617Z" horiz-adv-x="1641" unicode="%"/>
			<glyph d="M666 1458Q740 1458 800 1436T902 1375T967 1282T990 1164Q990 1096 972 1040T914 936T810 845T656 759Q746 664 847 563T1064 350Q1091 390 1113 438T1152 540T1177 648T1188 758H1311Q1306 487 1142 266Q1196 213 1263 147T1414 -1L1228 0L1054 173Q857 -25 580 -25Q476 -25 392 3T250 83T161 206T130 361Q130 625 459 783Q301 977 301 1123Q301 1195 328 1256T404 1362T519 1432T666 1458ZM663 1350Q610 1350 567 1333T494 1285T447 1213T431 1122Q431 1004 579 838Q655 873 708 908T796 982T846 1062T862 1151Q862 1195 846 1231T804 1294T741 1335T663 1350ZM538 700Q394 632 328 552T262 368Q262 305 285 253T351 164T452 107T584 87Q810 87 977 253Q858 370 749 480T538 700Z" horiz-adv-x="1436" unicode="&amp;"/>
			<glyph d="M170 1434H285V986H170Z" horiz-adv-x="454" unicode="'"/>
			<glyph d="M453 1434H576Q263 1064 263 548Q263 48 573 -326H451Q145 28 145 546Q145 1077 453 1434Z" horiz-adv-x="598" unicode="("/>
			<glyph d="M22 1434H145Q453 1077 453 546Q453 28 147 -326H25Q335 48 335 548Q335 1064 22 1434Z" horiz-adv-x="598" unicode=")"/>
			<glyph d="M364 1434H480L462 1120L736 1220L770 1115L487 1049L682 794L589 731L424 1002L256 731L164 794L358 1049L73 1115L106 1220L384 1120Z" horiz-adv-x="842" unicode="*"/>
			<glyph d="M629 1059H737V651H1145V542H737V135H629V542H221V651H629Z" horiz-adv-x="1366" unicode="+"/>
			<glyph d="M176 227H307L140 -256H43Z" horiz-adv-x="449" unicode=","/>
			<glyph d="M144 640H691V530H144Z" horiz-adv-x="817" unicode="-"/>
			<glyph d="M224 173Q244 173 261 165T292 145T313 115T321 76Q321 56 313 38T292 8T261 -12T224 -20Q184 -20 156 8T128 76Q128 117 155 145T224 173Z" horiz-adv-x="449" unicode="."/>
			<glyph d="M664 1434H789L93 -238H-29Z" horiz-adv-x="774" unicode="/"/>
			<glyph d="M557 1458Q989 1458 989 723Q989 541 958 402T867 168T722 24T526 -24Q423 -24 342 22T204 157T118 380T89 687Q89 1069 209 1263T557 1458ZM549 1346Q389 1346 305 1184T221 697Q221 397 301 241T540 86Q617 86 676 126T776 245T836 440T857 707Q857 1346 549 1346Z" horiz-adv-x="1079" unicode="0"/>
			<glyph d="M517 1466H554V0H426V1282Q391 1252 347 1224T258 1171T167 1127T83 1095V1208Q201 1246 308 1312T517 1466Z" horiz-adv-x="768" unicode="1"/>
			<glyph d="M527 1458Q545 1458 561 1456T594 1450Q668 1442 728 1412T832 1336T898 1224T922 1081Q922 989 898 916T829 781T722 665T583 556Q497 494 435 446T333 356T272 270T245 174Q240 160 238 146T237 115H951V0H102V69Q102 165 124 235T195 367T318 490T498 627Q569 679 624 727T716 827T772 937T791 1066Q791 1134 770 1186T713 1274T624 1328T509 1346Q413 1346 324 1300T158 1179V1321Q234 1386 324 1422T527 1458Z" horiz-adv-x="1079" unicode="2"/>
			<glyph d="M490 1458Q566 1458 636 1437T758 1373T842 1267T874 1119Q874 832 590 752V748Q660 740 721 713T827 642T898 536T924 399Q924 297 886 218T782 85T627 3T439 -25Q257 -25 123 52V193Q278 86 443 86Q511 86 574 103T685 156T763 249T792 385Q792 535 686 611T376 687H262V798H367Q553 798 647 871T741 1086Q741 1213 671 1279T463 1346Q319 1346 179 1248V1377Q329 1458 490 1458Z" horiz-adv-x="1079" unicode="3"/>
			<glyph d="M719 1434H856V472H1080V356H856V0H729V356H50V472Q145 580 242 702T429 951T593 1201T719 1434ZM729 1229Q655 1101 582 990T440 785T309 613T195 472H729Z" horiz-adv-x="1124" unicode="4"/>
			<glyph d="M246 1434H871V1318H355L325 853Q412 859 463 859Q577 859 664 829T812 745T903 611T934 432Q934 330 901 246T805 102T650 9T441 -24Q264 -24 160 32V172Q303 86 446 86Q528 86 594 110T706 178T778 284T803 421Q803 579 706 662T420 745Q344 745 202 733Z" horiz-adv-x="1079" unicode="5"/>
			<glyph d="M688 1458Q821 1458 911 1420V1293Q806 1346 689 1346Q588 1346 506 1298T368 1164T280 955T249 687H253Q356 897 596 897Q687 897 760 864T886 772T967 632T996 455Q996 350 963 262T872 110T733 11T557 -25Q453 -25 371 18T233 146T147 352T117 630Q117 817 156 970T270 1231T449 1399T688 1458ZM567 785Q501 785 444 759T347 689T283 588T260 469Q260 391 282 321T344 200T440 117T564 87Q630 87 685 113T779 185T841 295T864 435Q864 514 843 579T785 689T692 760T567 785Z" horiz-adv-x="1079" unicode="6"/>
			<glyph d="M70 1434H964V1380Q887 1241 821 1117T701 878T603 655T524 440T464 224T421 0H286Q310 156 359 320T476 651T628 986T806 1318H70Z" horiz-adv-x="1034" unicode="7"/>
			<glyph d="M542 1458Q626 1458 697 1430T821 1353T902 1237T931 1092Q931 1041 916 994T873 906T807 831T722 773Q786 749 835 709T917 619T968 513T985 400Q985 303 952 224T861 91T721 6T541 -23Q444 -23 363 6T223 91T131 224T98 400Q98 457 115 513T166 619T250 709T365 773Q268 823 210 906T153 1092Q153 1171 182 1238T264 1354T387 1430T542 1458ZM541 712Q475 712 419 689T322 625T258 527T235 402Q235 331 257 273T319 175T416 112T541 90Q608 90 664 112T761 175T825 273T848 402Q848 465 826 521T764 620T667 687T541 712ZM542 1347Q485 1347 437 1326T356 1270T303 1186T285 1084Q285 1029 305 981T360 898T442 842T542 822Q595 822 642 842T724 898T779 982T800 1084Q800 1140 780 1188T725 1271T643 1327T542 1347Z" horiz-adv-x="1079" unicode="8"/>
			<glyph d="M545 1458Q646 1458 726 1416T862 1291T947 1087T977 806Q977 608 939 453T828 192T649 30T404 -25Q282 -25 175 18V147Q292 87 407 87Q618 87 732 255T846 746H842Q746 538 506 538Q416 538 341 571T212 662T128 802T98 982Q98 1088 131 1175T224 1326T366 1423T545 1458ZM531 1346Q466 1346 411 1320T316 1248T253 1140T230 1002Q230 921 252 856T314 746T410 677T535 653Q597 653 651 677T746 741T810 836T834 953Q834 1040 811 1112T749 1236T653 1317T531 1346Z" horiz-adv-x="1079" unicode="9"/>
			<glyph d="M224 1044Q243 1044 260 1037T291 1017T313 987T321 949Q321 928 313 910T291 880T260 859T224 852Q204 852 186 859T156 880T135 911T128 949Q128 989 156 1016T224 1044ZM224 173Q244 173 261 165T292 145T313 115T321 76Q321 56 313 38T292 8T261 -12T224 -20Q184 -20 156 8T128 76Q128 117 155 145T224 173Z" horiz-adv-x="449" unicode=":"/>
			<glyph d="M231 1044Q271 1044 299 1016T327 949Q327 928 319 910T297 880T267 859T231 852Q189 852 162 880T135 949Q135 990 162 1017T231 1044ZM176 227H307L140 -256H43Z" horiz-adv-x="449" unicode=";"/>
			<glyph d="M1106 1082V960L447 593V589L1106 265V142L260 569V608Z" horiz-adv-x="1366" unicode="&lt;"/>
			<glyph d="M221 855H1145V747H221ZM221 448H1145V340H221Z" horiz-adv-x="1366" unicode="="/>
			<glyph d="M260 1082L1106 608V569L260 142V265L921 588V593L260 960Z" horiz-adv-x="1366" unicode="&gt;"/>
			<glyph d="M445 1458Q520 1458 585 1437T699 1377T775 1278T803 1143Q803 1087 787 1040T746 953T689 878T623 811Q580 770 547 737T493 675T459 614T448 545Q448 499 457 461T477 398H356Q346 424 339 464T332 546Q332 597 348 638T390 717T450 788T522 857Q552 885 579 914T628 976T662 1046T675 1127Q675 1179 656 1219T605 1286T528 1328T433 1343Q343 1343 267 1310T125 1215V1357Q199 1408 277 1433T445 1458ZM418 173Q437 173 454 166T485 146T507 115T515 77Q515 57 507 39T485 9T454 -11T418 -18Q399 -18 382 -11T352 9T331 39T323 77Q323 98 330 115T351 145T381 165T418 173Z" horiz-adv-x="899" unicode="?"/>
			<glyph d="M997 1456Q1105 1456 1205 1432T1391 1363T1549 1254T1671 1109T1749 932T1777 727Q1777 669 1767 606T1738 483T1687 369T1613 274T1513 209T1387 185Q1167 185 1158 423H1154Q1072 185 864 185Q789 185 732 214T637 294T579 412T560 556Q560 616 571 679T604 800T660 910T740 1000T845 1061T977 1083Q1009 1083 1041 1074T1101 1049T1151 1008T1185 952H1189L1199 1069H1305L1256 496Q1256 284 1392 284Q1443 284 1482 304T1551 358T1602 436T1635 529T1654 626T1660 718Q1660 865 1611 983T1474 1184T1262 1312T988 1357Q883 1357 790 1331T620 1257T480 1143T375 993T309 815T286 614Q286 458 335 328T475 106T694 -37T983 -88Q1231 -88 1407 -3V-112Q1224 -188 973 -188Q794 -188 646 -129T392 36T228 289T170 611Q170 727 197 834T274 1036T397 1207T562 1340T763 1425T997 1456ZM974 984Q894 984 837 945T745 845T694 708T678 559Q678 496 692 445T732 358T796 304T881 285Q937 285 979 307T1053 367T1106 452T1140 553T1158 659T1164 758Q1164 870 1115 927T974 984Z" horiz-adv-x="1944" unicode="@"/>
			<glyph d="M586 1434H720L1263 0H1115L957 424H342L188 0H40ZM647 1284Q641 1252 633 1227T619 1183L387 545H912L678 1183Q671 1202 663 1227T651 1284Z" horiz-adv-x="1303" unicode="A"/>
			<glyph d="M186 1434H578Q667 1434 738 1410T860 1342T938 1238T965 1104Q965 1042 948 988T899 889T820 812T715 761V757Q787 750 846 722T947 649T1012 543T1035 411Q1035 320 1002 244T909 114T768 30T587 0H186ZM319 1312V803H505Q578 803 637 822T738 877T802 964T825 1079Q825 1312 535 1312ZM319 683V121H566Q725 121 810 195T896 407Q896 683 521 683Z" horiz-adv-x="1144" unicode="B"/>
			<glyph d="M823 1458Q1006 1458 1150 1402V1260Q996 1337 821 1337Q682 1337 574 1289T392 1155T279 953T240 699Q240 575 275 465T378 274T549 144T786 96Q993 96 1150 183V53Q984 -25 771 -25Q619 -25 495 28T283 177T148 403T101 689Q101 852 151 992T296 1236T523 1399T823 1458Z" horiz-adv-x="1270" unicode="C"/>
			<glyph d="M186 1434H563Q931 1434 1119 1257T1307 736Q1307 570 1254 434T1103 201T863 52T545 0H186ZM319 1312V121H539Q687 121 803 161T1001 278T1124 470T1167 732Q1167 1312 554 1312Z" horiz-adv-x="1408" unicode="D"/>
			<glyph d="M186 1434H885V1312H319V786H843V666H319V121H917V0H186Z" horiz-adv-x="1030" unicode="E"/>
			<glyph d="M186 1434H885V1312H319V772H843V651H319V0H186Z" horiz-adv-x="976" unicode="F"/>
			<glyph d="M831 1458Q1044 1458 1211 1382V1235Q1027 1337 815 1337Q684 1337 578 1289T397 1157T282 958T240 710Q239 577 274 464T380 270T553 142T791 96Q973 96 1107 172V609H781V730H1240V99Q1019 -25 772 -25Q616 -25 492 28T281 177T147 405T101 697Q101 802 123 899T189 1081T296 1235T440 1354T620 1431T831 1458Z" horiz-adv-x="1386" unicode="G"/>
			<glyph d="M186 1434H319V791H1101V1434H1234V0H1101V671H319V0H186Z" horiz-adv-x="1420" unicode="H"/>
			<glyph d="M186 1434H319V0H186Z" horiz-adv-x="506" unicode="I"/>
			<glyph d="M388 1434H521V504Q521 236 422 106T142 -24Q107 -24 76 -19T19 -5V126Q75 96 144 96Q271 96 329 196T388 504Z" horiz-adv-x="697" unicode="J"/>
			<glyph d="M186 1434H319V759H323Q330 770 338 780T355 801L913 1434H1082L460 742L1123 0H937L354 671Q330 700 323 712H319V0H186Z" horiz-adv-x="1133" unicode="K"/>
			<glyph d="M186 1434H319V121H895V0H186Z" horiz-adv-x="951" unicode="L"/>
			<glyph d="M186 1434H343L830 356Q845 322 859 286T886 211H892Q906 251 917 284T946 355L1437 1434H1586V0H1455V990Q1455 1066 1467 1235H1463Q1449 1190 1437 1157T1416 1103L916 0H859L358 1096Q336 1146 313 1237H309Q313 1191 314 1132T316 1001V0H186Z" horiz-adv-x="1772" unicode="M"/>
			<glyph d="M186 1434H333L1116 297Q1134 270 1148 246T1175 203H1180Q1176 236 1174 277T1172 368V1434H1306V0H1168L372 1151Q357 1173 342 1196T319 1241H314Q316 1223 317 1191T319 1111V0H186Z" horiz-adv-x="1492" unicode="N"/>
			<glyph d="M795 1458Q947 1458 1068 1403T1274 1252T1404 1024T1450 737Q1450 574 1405 434T1274 193T1061 33T770 -25Q615 -25 491 31T280 186T147 416T101 701Q101 869 147 1008T283 1247T501 1402T795 1458ZM781 1337Q651 1337 550 1287T381 1153T276 955T240 714Q239 592 271 480T369 283T535 147T769 96Q903 96 1004 142T1174 271T1276 468T1311 717Q1311 843 1280 956T1185 1153T1021 1287T781 1337Z" horiz-adv-x="1551" unicode="O"/>
			<glyph d="M186 1434H556Q669 1434 756 1406T903 1325T994 1195T1025 1019Q1025 919 990 834T889 688T730 592T517 558H319V0H186ZM319 1312V680H509Q694 680 790 766T886 1009Q886 1312 532 1312Z" horiz-adv-x="1130" unicode="P"/>
			<glyph d="M795 1458Q941 1458 1061 1405T1268 1257T1402 1029T1450 737Q1450 505 1368 336T1141 76L1537 -193H1295L1007 13Q953 -5 894 -14T770 -24Q618 -24 494 29T283 177T148 406T101 701Q101 874 149 1013T288 1252T506 1404T795 1458ZM781 1337Q662 1337 562 1291T391 1164T280 967T240 714Q240 574 278 460T385 265T551 140T769 96Q894 96 994 138T1164 260T1273 455T1311 717Q1311 864 1274 979T1168 1173T1001 1295T781 1337Z" horiz-adv-x="1551" unicode="Q"/>
			<glyph d="M186 1434H599Q680 1434 755 1410T890 1339T984 1221T1020 1056Q1020 980 997 916T931 802T828 718T692 667V663Q721 651 745 632T791 586T836 524T882 444L1123 0H967L751 411Q719 472 689 513T627 578T558 613T477 624H319V0H186ZM319 1312V745H557Q629 745 689 766T791 826T857 920T881 1044Q881 1169 800 1240T568 1312Z" horiz-adv-x="1181" unicode="R"/>
			<glyph d="M600 1458Q769 1458 883 1411V1264Q756 1337 585 1337Q521 1337 464 1321T365 1276T298 1201T274 1098Q274 1042 290 1001T343 925T439 853T585 772Q675 724 742 678T853 583T920 478T942 355Q942 261 907 189T809 71T659 0T468 -24Q434 -24 387 -18T292 -2T200 22T130 54V210Q166 183 209 161T298 125T390 103T478 96Q641 96 722 159T803 340Q803 397 784 439T725 519T624 592T480 675Q388 725 322 769T215 860T154 961T135 1084Q135 1171 172 1240T272 1357T419 1432T600 1458Z" horiz-adv-x="1053" unicode="S"/>
			<glyph d="M50 1434H1010V1312H596V0H463V1312H50Z" horiz-adv-x="1060" unicode="T"/>
			<glyph d="M168 1434H301V566Q301 330 396 213T690 96Q1066 96 1066 552V1434H1199V576Q1199 -25 671 -25Q168 -25 168 554Z" horiz-adv-x="1367" unicode="U"/>
			<glyph d="M29 1434H178L584 288Q595 256 603 223T617 156H621Q626 184 635 217T658 290L1081 1434H1225L681 0H551Z" horiz-adv-x="1254" unicode="V"/>
			<glyph d="M38 1434H186L502 309Q513 272 519 238T530 174H534Q540 219 567 309L903 1434H1008L1323 305Q1332 271 1339 238T1350 175H1354Q1356 195 1362 220T1376 276L1690 1434H1835L1422 0H1283L976 1063Q965 1101 958 1136T951 1204H947Q943 1146 918 1065L600 0H461Z" horiz-adv-x="1873" unicode="W"/>
			<glyph d="M76 1434H238L545 912Q559 889 571 864T597 814H601Q615 843 628 868T655 914L967 1434H1121L681 724L1129 0H967L637 548Q626 567 614 589T594 633H589Q579 613 568 592T544 548L206 0H43L510 722Z" horiz-adv-x="1180" unicode="X"/>
			<glyph d="M34 1434H185L513 764Q519 752 529 728T553 667H556Q562 685 573 709T600 763L943 1434H1085L617 537V0H484V534Z" horiz-adv-x="1119" unicode="Y"/>
			<glyph d="M117 1434H1105V1400L249 121H1088V0H49V39L900 1312H117Z" horiz-adv-x="1167" unicode="Z"/>
			<glyph d="M204 1434H547V1332H323V-224H547V-326H204Z" horiz-adv-x="598" unicode="["/>
			<glyph d="M-27 1434H98L779 -239H657Z" horiz-adv-x="763" unicode="\"/>
			<glyph d="M52 1434H394V-326H52V-224H275V1332H52Z" horiz-adv-x="598" unicode="]"/>
			<glyph d="M648 1458H701L1122 663H999L680 1279H675L366 663H245Z" horiz-adv-x="1366" unicode="^"/>
			<glyph d="M0 -178H850V-282H0Z" horiz-adv-x="850" unicode="_"/>
			<glyph d="M79 1531H215L442 1203H334Z" horiz-adv-x="528" unicode="`"/>
			<glyph d="M537 1048Q708 1048 795 952T883 666V0H755V182H751Q701 84 614 30T419 -24Q345 -24 285 -3T184 56T120 149T98 268Q98 407 184 489T444 597L755 642Q755 937 526 937Q347 937 194 806V946Q226 969 266 987T352 1019T444 1040T537 1048ZM755 534L491 497Q422 487 373 472T292 431T245 368T230 276Q230 235 244 200T286 139T353 100T443 86Q511 86 568 112T666 184T731 294T755 433Z" horiz-adv-x="1026" unicode="a"/>
			<glyph d="M165 1516H293V828H297Q354 935 449 991T665 1048Q763 1048 840 1012T971 911T1053 752T1082 545Q1082 418 1049 313T957 134T811 17T620 -24Q403 -24 297 165H293V0H165ZM639 937Q559 937 495 907T386 827T317 707T293 562V426Q293 356 316 294T382 186T483 113T615 86Q692 86 754 118T859 211T926 356T950 546Q950 636 928 708T865 832T767 910T639 937Z" horiz-adv-x="1175" unicode="b"/>
			<glyph d="M617 1048Q744 1048 849 999V863Q737 937 607 937Q516 937 445 902T325 808T251 669T226 501Q226 419 247 344T313 211T426 120T586 86Q730 86 846 172V46Q732 -23 570 -25Q460 -26 372 13T222 121T127 285T94 491Q94 606 129 707T231 884T395 1004T617 1048Z" horiz-adv-x="927" unicode="c"/>
			<glyph d="M883 1516H1011V0H883V180H879Q828 83 733 29T519 -24Q423 -24 344 11T210 114T123 276T93 491Q93 615 126 717T221 893T369 1007T562 1048Q783 1048 879 871H883ZM571 937Q495 937 431 907T321 820T250 683T225 499Q225 402 248 325T313 195T415 114T546 86Q624 86 686 114T792 191T859 306T883 447V618Q883 685 860 743T796 844T697 912T571 937Z" horiz-adv-x="1176" unicode="d"/>
			<glyph d="M558 1048Q657 1048 733 1013T860 915T939 759T966 553V489H226Q227 395 251 320T320 193T429 113T575 86Q748 86 902 207V81Q755 -24 546 -24Q443 -24 359 12T216 116T125 285T93 513Q93 628 128 726T225 895T372 1007T558 1048ZM555 937Q490 937 434 914T337 847T267 741T229 601H834Q831 761 758 849T555 937Z" horiz-adv-x="1052" unicode="e"/>
			<glyph d="M528 1535Q600 1535 642 1516V1395Q599 1423 531 1423Q351 1423 351 1188V1024H606V912H351V0H223V912H44V1024H223V1196Q223 1273 242 1335T300 1442T395 1511T528 1535Z" horiz-adv-x="603" unicode="f"/>
			<glyph d="M562 1048Q779 1048 879 872H883V1024H1011V79Q1011 -206 881 -343T482 -481Q314 -481 164 -406V-276Q331 -369 482 -369Q883 -369 883 55V178H879Q761 -24 519 -24Q424 -24 345 11T211 112T124 272T93 486Q93 612 126 715T220 893T367 1007T562 1048ZM574 937Q494 937 429 906T319 818T249 679T225 496Q225 402 248 326T313 197T414 115T547 86Q623 86 685 113T791 189T859 303T883 445V622Q883 686 860 743T796 843T698 911T574 937Z" horiz-adv-x="1176" unicode="g"/>
			<glyph d="M165 1516H293V847H297Q417 1048 641 1048Q812 1048 898 943T984 633V0H856V602Q856 774 794 855T601 937Q539 937 483 912T385 840T318 725T293 573V0H165Z" horiz-adv-x="1127" unicode="h"/>
			<glyph d="M228 1465Q247 1465 264 1458T293 1440T313 1411T321 1375Q321 1356 314 1339T294 1309T264 1290T228 1283Q191 1283 164 1309T137 1375Q137 1414 164 1439T228 1465ZM165 1024H293V0H165Z" horiz-adv-x="458" unicode="i"/>
			<glyph d="M165 1024H293V36Q293 -218 203 -350T-84 -482Q-154 -482 -225 -448V-324Q-147 -370 -77 -370Q165 -370 165 14ZM228 1465Q247 1465 264 1458T293 1440T313 1411T321 1375Q321 1356 314 1339T294 1309T264 1290T228 1283Q191 1283 164 1309T137 1375Q137 1414 164 1439T228 1465Z" horiz-adv-x="458" unicode="j"/>
			<glyph d="M165 1516H293V547H297L744 1024H911L431 529L949 0H768L297 499H293V0H165Z" horiz-adv-x="963" unicode="k"/>
			<glyph d="M165 1516H293V0H165Z" horiz-adv-x="458" unicode="l"/>
			<glyph d="M612 1048Q666 1048 714 1031T800 985T865 915T907 825Q961 934 1047 991T1243 1048Q1580 1048 1580 632V0H1452V602Q1452 694 1438 757T1394 861T1319 919T1211 937Q1155 937 1105 910T1017 837T958 728T937 592V0H809V615Q809 937 562 937Q505 937 456 911T370 840T313 729T293 587V0H165V1024H293V858H297Q405 1048 612 1048Z" horiz-adv-x="1723" unicode="m"/>
			<glyph d="M640 1048Q808 1048 896 939T984 624V0H856V590Q856 937 604 937Q537 937 480 910T381 837T316 725T293 586V0H165V1024H293V846H297Q411 1048 640 1048Z" horiz-adv-x="1127" unicode="n"/>
			<glyph d="M602 1048Q713 1048 802 1011T953 906T1048 738T1081 513Q1081 393 1046 294T948 125T792 15T584 -24Q470 -24 379 14T225 121T127 288T93 503Q93 631 129 732T231 903T392 1011T602 1048ZM594 937Q510 937 442 908T325 823T251 687T225 505Q225 409 251 332T324 200T440 115T592 86Q678 86 744 114T856 197T925 331T949 511Q949 718 857 827T594 937Z" horiz-adv-x="1174" unicode="o"/>
			<glyph d="M665 1048Q763 1048 840 1012T971 912T1053 754T1082 545Q1082 418 1050 313T958 134T812 17T620 -24Q404 -24 297 165H293V-471H165V1024H293V828H297Q354 935 449 991T665 1048ZM639 937Q559 937 495 907T386 827T317 707T293 562V426Q293 356 316 294T382 186T483 113T615 86Q692 86 754 118T859 211T926 356T950 546Q950 636 928 708T865 832T767 910T639 937Z" horiz-adv-x="1175" unicode="p"/>
			<glyph d="M564 1048Q783 1048 879 870H883V1024H1011V-471H883V182H879Q770 -24 519 -24Q422 -24 343 12T208 115T123 277T93 492Q93 620 127 722T224 897T372 1009T564 1048ZM569 937Q493 937 430 907T321 822T250 683T225 496Q225 400 248 324T313 195T413 114T541 86Q623 86 686 114T793 192T860 307T883 449V612Q883 681 860 740T797 843T698 912T569 937Z" horiz-adv-x="1176" unicode="q"/>
			<glyph d="M573 1043Q604 1043 628 1039T673 1027V893Q628 926 557 926Q506 926 467 906T398 854T348 777T315 687T297 592T292 501V0H165V1024H292V805H296Q314 861 341 905T405 980T483 1027T573 1043Z" horiz-adv-x="694" unicode="r"/>
			<glyph d="M472 1048Q605 1048 704 998V863Q589 937 456 937Q408 937 368 925T301 891T257 838T242 771Q242 733 254 704T291 653T357 609T456 564Q530 534 584 504T673 440T725 363T742 265Q742 196 713 142T634 51T516 -5T368 -24Q213 -24 107 41V184Q136 161 170 143T240 112T312 92T382 86Q610 86 610 257Q610 296 594 324T548 376T476 420T381 462Q310 491 259 521T175 586T126 664T110 761Q110 829 139 882T219 972T334 1028T472 1048Z" horiz-adv-x="832" unicode="s"/>
			<glyph d="M341 1324V1024H605V912H341V285Q341 181 375 135T490 89Q550 89 605 125V12Q539 -21 461 -21Q213 -21 213 265V912H33V1024H213V1282Z" horiz-adv-x="651" unicode="t"/>
			<glyph d="M143 1024H271V446Q271 262 336 174T537 86Q603 86 657 111T751 183T813 295T835 439V1024H963V0H835V174H831Q727 -24 508 -24Q143 -24 143 422Z" horiz-adv-x="1128" unicode="u"/>
			<glyph d="M16 1024H157L440 244Q466 173 473 119H477Q489 191 508 240L801 1024H938L530 0H408Z" horiz-adv-x="954" unicode="v"/>
			<glyph d="M30 1024H167L392 230Q402 195 406 141H414Q416 159 420 182T433 231L681 1024H787L1009 229Q1018 195 1024 140H1032Q1031 157 1036 179T1049 229L1274 1024H1403L1090 0H962L745 752Q735 787 729 843H725Q723 828 718 806T704 754L465 0H340Z" horiz-adv-x="1433" unicode="w"/>
			<glyph d="M41 1024H190L403 665Q419 638 431 616T451 581H455Q468 600 479 619T502 659L728 1024H872L526 504L862 0H708L500 339Q488 358 475 378T450 421H446Q441 411 430 394T405 353L181 0H30L376 501Z" horiz-adv-x="902" unicode="x"/>
			<glyph d="M17 1024H159L452 213Q458 197 463 176T474 136H479Q484 153 488 170T501 209L812 1024H947L462 -186Q402 -336 324 -408T135 -481Q80 -481 42 -468V-348Q64 -356 86 -360T132 -364Q195 -364 241 -324T322 -205L411 5Z" horiz-adv-x="959" unicode="y"/>
			<glyph d="M98 1024H886V988L240 112H871V0H45V43L688 912H98Z" horiz-adv-x="938" unicode="z"/>
			<glyph d="M530 1434V1328Q445 1323 408 1272T371 1111V818Q371 601 223 556V552Q371 506 371 283V1Q371 -57 379 -98T406 -166T455 -206T530 -221V-326Q390 -322 319 -250T249 -25V273Q249 383 209 442T93 509V599Q249 616 249 828V1131Q249 1285 319 1357T530 1434Z" horiz-adv-x="598" unicode="{"/>
			<glyph d="M178 1566H299V-481H178Z" horiz-adv-x="476" unicode="|"/>
			<glyph d="M69 1434Q209 1430 279 1358T350 1131V828Q350 614 505 599V509Q350 492 350 273V-25Q350 -178 279 -250T69 -326V-221Q110 -220 140 -208T189 -170T218 -103T228 1V283Q228 505 376 552V556Q228 603 228 818V1111Q228 1170 218 1210T188 1276T139 1314T69 1328Z" horiz-adv-x="598" unicode="}"/>
			<glyph d="M484 735Q584 735 699 651Q734 626 760 608T809 580T851 565T890 561Q954 561 991 605T1034 730H1140Q1133 599 1066 526T884 454Q781 454 651 551Q549 626 483 626Q343 626 334 459H227Q230 523 249 574T301 661T380 716T484 735Z" horiz-adv-x="1366" unicode="~"/>
			<glyph d="" horiz-adv-x="561" unicode=" "/>
			<glyph d="M347 1010L683 672L1019 1010L1096 934L759 596L1096 260L1019 183L683 521L347 183L270 260L607 596L270 934Z" horiz-adv-x="1366" unicode="×"/>
			<glyph d="M574 1042Q698 1042 785 1011T927 927T1007 798T1032 633V0H912V623Q912 791 829 865T575 940Q484 940 429 922T334 876T270 810T231 708H478V620Q371 599 317 542T263 395V0H143V405Q143 492 193 545T317 624H116V704Q130 775 165 836T258 944T394 1016T574 1042Z" horiz-adv-x="1175" unicode="ก"/>
			<glyph d="M400 1042Q471 1042 533 1022T642 963T715 871T751 740Q672 719 608 649T544 420V104H787Q864 104 913 143T962 254V1024H1082V274Q1082 225 1068 176T1020 88T927 24T781 0H424V422Q424 562 471 648T626 774Q623 797 610 822T573 874T501 918T395 937Q318 937 260 911T179 837Q184 839 195 840T222 842Q259 842 290 829T345 793T381 738T394 670Q394 633 381 601T345 546T290 510T222 497Q176 497 141 514T83 560T48 631T37 720Q37 774 55 831T116 935T228 1012T400 1042ZM221 747Q205 747 191 741T166 724T150 699T144 669Q144 637 166 614T221 592Q237 592 251 598T276 614T293 639T299 669Q299 701 276 724T221 747Z" horiz-adv-x="1235" unicode="ข"/>
			<glyph d="M259 1034L395 909L514 1034Q555 1029 600 1010T677 959T729 880T750 752Q669 732 606 646T544 420V104H801Q883 104 935 143T987 254V1024H1107V274Q1107 225 1093 176T1043 88T947 24T795 0H424V422Q424 562 472 648T636 778Q634 807 628 830T610 872T579 904T525 927L395 794L251 927Q235 915 223 902T199 874T178 837T165 786Q174 791 192 794T222 797Q259 797 290 784T345 748T381 693T394 625Q394 588 381 556T345 501T290 465T222 452Q176 452 141 467T83 509T48 574T37 655Q37 716 50 774T89 883T157 972T259 1034ZM221 702Q205 702 191 696T166 679T150 654T144 624Q144 592 166 569T221 547Q237 547 251 553T276 569T293 594T299 624Q299 656 276 679T221 702Z" horiz-adv-x="1260" unicode="ฃ"/>
			<glyph d="M565 1042Q793 1042 913 940T1034 633V0H914V623Q914 709 898 761T840 852T737 915T565 939Q458 939 398 916T295 857T236 778T220 662Q220 602 233 548T259 450Q282 498 310 542T373 619T452 673T550 693Q590 693 625 681T685 647T725 592T740 517Q740 480 727 448T690 394T635 358T567 345Q530 345 498 358T444 394T408 448T395 517Q395 527 397 531Q381 515 363 487T329 422T302 335T292 216V0H172V274Q171 322 159 365T135 452T111 547T100 662Q100 755 132 826T225 945T372 1017T565 1042ZM568 595Q552 595 537 589T512 572T496 548T490 518Q490 486 513 463T568 440Q584 440 598 446T622 462T639 487T645 518Q645 550 622 572T568 595Z" horiz-adv-x="1177" unicode="ค"/>
			<glyph d="M412 1034L565 869L717 1032Q789 1024 844 999T942 927T1009 808T1034 633V0H914V623Q914 677 906 722T879 802T830 865T738 918L565 743L391 918Q329 891 302 864T257 807T229 738T220 662Q220 602 233 548T259 450Q282 488 310 523T373 584T452 627T550 643Q590 643 625 631T685 597T725 542T740 467Q740 430 727 398T690 344T635 308T567 295Q530 295 498 308T444 344T408 398T395 467Q395 477 397 481Q381 468 363 446T329 393T302 324T292 237V0H172V274Q171 322 159 365T135 452T111 547T100 662Q100 754 128 820T199 930T295 999T412 1034ZM568 545Q552 545 537 539T512 522T496 498T490 468Q490 436 513 413T568 390Q584 390 598 396T622 412T639 437T645 468Q645 500 622 522T568 545Z" horiz-adv-x="1177" unicode="ฅ"/>
			<glyph d="M424 273Q399 270 378 260T342 235T319 200T311 154Q311 116 328 100T367 84Q390 84 407 99T424 153ZM246 1034L395 899L524 1034Q555 1029 597 1010T672 959T725 880T746 772Q663 742 603 652T544 420V364Q614 352 679 331T798 283T900 220T982 149V1024H1102V0H962Q930 55 879 99T772 177T652 236T544 269V176Q544 131 533 95T501 35T442 -2T362 -16Q281 -16 239 30T197 154Q197 202 217 240T268 305T342 348T424 368V422Q424 562 477 648T626 778Q626 804 620 825T602 865T571 897T525 917L395 784L248 917Q232 906 218 893T195 865T179 833T170 787Q179 792 195 794T222 797Q259 797 290 784T345 748T381 693T394 625Q394 588 381 556T345 501T290 465T222 452Q176 452 141 467T83 509T48 574T37 655Q37 718 51 776T92 884T158 973T246 1034ZM221 702Q205 702 191 696T166 679T150 654T144 624Q144 592 166 569T221 547Q237 547 251 553T276 569T293 594T299 624Q299 656 276 679T221 702Z" horiz-adv-x="1268" unicode="ฆ"/>
			<glyph d="M466 1034Q503 1034 534 1021T589 984T626 929T639 861V0H496L0 462V624L519 138V693Q514 692 496 690T466 689Q429 689 397 702T343 738T307 792T294 861Q294 898 307 929T343 984T397 1021T466 1034ZM467 939Q451 939 436 933T411 916T395 892T389 862Q389 830 412 807T467 784Q483 784 497 790T521 806T538 831T544 862Q544 894 521 916T467 939Z" horiz-adv-x="795" unicode="ง"/>
			<glyph d="M463 1042Q574 1042 657 1011T792 926T871 797T899 633V0H790L526 359Q499 305 457 278T365 252Q328 252 296 265T242 301T206 355T193 424Q193 461 205 492T242 547T300 584T378 597Q429 597 476 571T568 483L779 187V639Q779 696 762 750T709 847T612 914T463 939Q414 939 362 926T261 891T164 838T80 771V911Q155 974 251 1008T463 1042ZM366 502Q333 502 310 479T288 425Q288 393 311 370T366 347Q398 347 420 369T443 425Q443 457 420 479T366 502Z" horiz-adv-x="1042" unicode="จ"/>
			<glyph d="M535 1042Q646 1042 729 1011T868 926T952 797T980 633V353Q1009 350 1054 335T1133 295T1187 233T1207 157Q1207 116 1195 85T1159 32T1100 -3T1037 -16Q999 -16 962 -2T903 35T870 95T860 176V259Q775 250 719 225T613 165T520 87T445 0H325V345Q318 343 302 342T272 341Q235 341 203 354T149 390T113 444T100 513Q100 550 113 581T149 636T203 673T272 686Q309 686 340 673T395 636T432 581T445 513V156Q480 192 521 224T611 281T714 324T860 349V622Q860 699 843 753T784 849T677 915T535 939Q486 939 434 926T333 891T236 838T152 771V911Q227 974 323 1008T535 1042ZM273 591Q257 591 242 585T217 568T201 544T195 514Q195 482 218 459T273 436Q289 436 303 442T327 458T344 483T350 514Q350 546 327 568T273 591ZM980 262V147Q980 106 997 89T1037 73Q1059 73 1076 89T1093 153Q1093 197 1062 227T980 262Z" horiz-adv-x="1267" unicode="ฉ"/>
			<glyph d="M1056 1108H1182Q1173 1066 1150 1031T1095 970T1027 924T954 893Q980 886 1005 868T1049 821T1080 754T1092 668V274Q1092 225 1079 176T1035 88T951 24T818 0H424V422Q424 562 476 648T631 774Q628 827 600 863T550 914T497 937T395 947Q324 947 265 918T182 836Q187 838 200 840T222 842Q259 842 290 829T345 793T381 738T394 670Q394 633 381 601T345 546T290 510T222 497Q176 497 141 514T83 560T48 631T37 720Q37 774 55 831T116 935T228 1012T400 1042Q481 1042 544 1022T650 966T716 880T751 754Q662 723 603 641T544 420V104H824Q888 104 930 143T972 254V668Q972 706 963 738T940 795T906 837T866 863V924Q947 945 993 992T1056 1108ZM221 747Q205 747 191 741T166 724T150 699T144 669Q144 637 166 614T221 592Q237 592 251 598T276 614T293 639T299 669Q299 701 276 724T221 747Z" horiz-adv-x="1231" unicode="ช"/>
			<glyph d="M1071 1108H1197Q1188 1066 1165 1031T1111 970T1043 924T970 893Q996 886 1021 868T1065 821T1095 754T1107 668V274Q1107 225 1094 176T1050 88T966 24T833 0H424V422Q424 562 477 648T636 774Q636 814 630 835T612 875T581 907T525 927L395 794L248 927Q231 914 215 896T193 868T179 840T170 787Q179 792 195 794T222 797Q259 797 290 784T345 748T381 693T394 625Q394 588 381 556T345 501T290 465T222 452Q176 452 141 467T83 509T48 574T37 655Q37 716 51 774T93 883T159 972T246 1034L395 899L524 1034Q565 1029 607 1010T682 959T735 880T756 752Q664 721 604 640T544 420V104H839Q903 104 945 143T987 254V668Q987 706 978 738T955 795T921 837T881 863V924Q962 945 1008 992T1071 1108ZM221 702Q205 702 191 696T166 679T150 654T144 624Q144 592 166 569T221 547Q237 547 251 553T276 569T293 594T299 624Q299 656 276 679T221 702Z" horiz-adv-x="1246" unicode="ซ"/>
			<glyph d="M560 1042Q675 1042 759 1011T889 927T956 798T978 633V364Q1043 356 1106 337T1220 293T1320 233T1406 158V1024H1526V0H1406Q1378 46 1332 93T1232 178T1109 241T978 275V176Q978 131 967 95T935 35T876 -2T791 -16Q707 -16 662 30T617 154Q617 202 635 240T686 305T764 348T858 368V653Q858 722 841 775T790 865T702 921T561 940Q470 940 416 921T326 874T265 804T236 708H499V620Q389 604 326 547T264 400V323Q271 325 290 327T317 329Q354 329 385 316T440 280T476 225T489 157Q489 120 476 88T440 33T385 -3T317 -16Q280 -16 248 -3T193 33T157 88T144 157V395Q144 482 189 540T337 624H122V704Q136 775 168 836T254 944T384 1016T560 1042ZM316 234Q300 234 286 228T261 211T245 186T239 156Q239 124 261 101T316 79Q332 79 346 85T371 101T388 126T394 156Q394 188 371 211T316 234ZM858 279Q813 276 792 266T756 241T733 206T725 158Q725 122 742 103T792 84Q819 84 838 101T858 157Z" horiz-adv-x="1702" unicode="ฌ"/>
			<glyph d="M1498 -25V-193Q1470 -228 1429 -262T1336 -323T1221 -368T1086 -385Q1034 -385 994 -372T928 -335T887 -280T874 -213Q874 -178 886 -148T920 -96T972 -61T1037 -49Q1072 -49 1102 -61T1154 -96T1188 -148T1201 -213Q1201 -227 1197 -246T1182 -279Q1221 -270 1266 -246T1355 -189T1436 -113T1498 -25ZM1038 -143Q1008 -143 988 -163T968 -212Q968 -242 988 -262T1038 -282Q1067 -282 1087 -262T1107 -212Q1107 -183 1087 -163T1038 -143ZM316 234Q300 234 286 228T261 211T245 186T239 156Q239 124 261 101T316 79Q332 79 346 85T371 101T388 126T394 156Q394 188 371 211T316 234ZM560 1042Q675 1042 758 1011T888 927T956 798T978 633V104H1268Q1332 104 1374 143T1416 254V1024H1536V274Q1536 225 1523 176T1479 88T1395 24T1262 0H858V653Q858 722 842 775T792 865T703 921T561 940Q475 940 421 921T329 872T272 800T246 708H499V620Q372 599 318 542T264 395V323Q273 326 289 327T317 329Q354 329 385 316T440 280T476 225T489 157Q489 120 476 88T440 33T385 -3T317 -16Q280 -16 248 -3T193 33T157 88T144 157V405Q144 492 194 545T337 624H122V704Q136 775 168 836T254 944T384 1016T560 1042Z" horiz-adv-x="1689" unicode="ญ"/>
			<glyph d="M516 -183Q484 -183 461 -189T425 -205T405 -228T399 -258Q399 -286 414 -301T456 -317Q482 -317 502 -306T536 -279T560 -237T573 -190Q565 -188 547 -185T516 -183ZM644 1042Q768 1042 852 1011T983 927T1051 798T1072 633V-410H936Q874 -326 804 -279T655 -209Q649 -245 633 -278T591 -339T529 -383T456 -401Q424 -401 396 -392T348 -364T316 -319T304 -256Q304 -218 319 -189T362 -139T428 -108T518 -99Q525 -99 535 -99T555 -101T574 -103T587 -105Q595 -53 615 -24T664 18H787Q737 0 708 -34T670 -119Q763 -143 834 -188T952 -276V653Q952 722 936 775T886 865T797 921T645 940Q557 940 504 921T417 874T360 806T330 708H593V620Q484 604 436 546T388 395V157Q388 120 375 88T338 33T283 -3T215 -16Q178 -16 146 -3T92 33T56 88T43 157Q43 194 56 225T92 280T146 316T215 329Q223 329 242 327T268 324V405Q268 489 301 544T427 624H206V704Q220 775 252 836T337 944T467 1016T644 1042ZM216 234Q184 234 161 211T138 156Q138 140 144 126T160 101T185 85T216 79Q248 79 270 101T293 156Q293 172 287 186T270 211T246 228T216 234Z" horiz-adv-x="1225" unicode="ฎ"/>
			<glyph d="M454 -136Q401 -136 374 -166T348 -235Q348 -262 362 -279T404 -296Q431 -296 448 -281T475 -243T491 -192T499 -140Q493 -138 480 -137T454 -136ZM644 1042Q768 1042 851 1011T984 927T1053 798T1072 633V-410H952Q947 -385 939 -359T921 -311T893 -276T854 -263Q830 -263 814 -276T789 -309T775 -349T769 -383H677Q663 -300 642 -246T587 -176Q582 -218 569 -256T535 -323T481 -369T404 -386Q335 -386 294 -347T253 -235Q253 -188 269 -152T313 -93T377 -58T453 -46Q467 -46 483 -48T509 -52Q526 22 563 69T658 143H818Q778 128 742 109T677 64T629 3T600 -79Q644 -100 679 -143T730 -256Q752 -211 784 -193T852 -175Q880 -175 907 -187T952 -221V646Q952 715 936 768T886 860T793 920T645 940Q553 940 503 921T414 871T356 802T330 708H593V620Q486 599 437 542T388 395V157Q388 120 375 88T338 33T283 -3T215 -16Q178 -16 146 -3T92 33T56 88T43 157Q43 194 56 225T92 280T146 316T215 329Q224 329 242 328T268 325V405Q268 493 300 545T427 624H206V704Q220 775 252 836T337 944T467 1016T644 1042ZM216 234Q184 234 161 211T138 156Q138 140 144 126T160 101T185 85T216 79Q248 79 270 101T293 156Q293 172 287 186T270 211T246 228T216 234Z" horiz-adv-x="1225" unicode="ฏ"/>
			<glyph d="M776 -31Q835 -31 867 -64T899 -148V-410H796L676 -358L563 -410H474Q467 -365 460 -334T446 -284T431 -252T412 -234Q404 -279 386 -312T344 -367T289 -399T225 -410Q159 -410 118 -372T78 -266Q78 -195 128 -151T272 -108Q286 -108 306 -110T332 -114Q335 -97 339 -79T353 -43H456Q444 -66 437 -89T425 -135Q442 -142 461 -156T498 -193T531 -250T557 -328L676 -273L819 -335V-246Q814 -249 799 -253T768 -257Q744 -257 723 -248T687 -224T663 -188T655 -143Q655 -121 663 -101T686 -65T724 -40T776 -31ZM270 -200Q174 -200 174 -266Q174 -289 188 -302T227 -315Q253 -315 270 -302T297 -272T313 -236T319 -206Q313 -204 298 -202T270 -200ZM425 1042Q464 1042 516 1039T621 1032T723 1025T803 1022Q817 1022 836 1023T873 1025T906 1028T927 1032V922Q920 919 904 917T871 915T834 914T803 914Q774 914 726 918T625 926T521 935T437 939Q358 939 323 925T272 891T250 847T245 775Q262 780 287 784T347 792T413 798T494 801Q594 801 665 783T783 726T852 626T874 481V240Q874 183 857 136T804 56T712 4T580 -14Q520 -14 464 2T377 49T332 122T319 216V227Q311 225 293 224T266 223Q229 223 197 236T143 272T107 326T94 395Q94 432 107 463T143 518T197 555T266 568Q303 568 334 555T389 518T426 463T439 395V214Q439 178 449 153T479 115T524 95T580 89Q632 89 658 95T706 116T741 157T754 224V509Q754 561 741 597T695 655T617 688T487 698Q433 698 381 694T284 684T200 672T134 659V748Q134 811 146 865T190 958T279 1020T425 1042ZM267 473Q251 473 236 467T211 450T195 426T189 396Q189 364 212 341T267 318Q283 318 297 324T321 340T338 365T344 396Q344 428 321 450T267 473ZM768 -92Q747 -92 732 -107T717 -143Q717 -164 732 -179T768 -194Q790 -194 804 -179T819 -143Q819 -122 804 -107T768 -92Z" horiz-adv-x="997" unicode="ฐ"/>
			<glyph d="M246 1034L395 899L524 1034Q555 1029 600 1010T678 959T728 880T746 757Q674 731 619 645T564 420V143L1026 1024H1047Q1085 1024 1119 1013T1179 981T1216 927T1227 849V0H1107V869Q1107 894 1093 901T1071 908L594 0H444V422Q444 562 482 648T626 774Q626 814 620 835T602 875T571 907T525 927L395 794L248 927Q231 915 218 901T196 875T178 841T165 785Q174 790 191 793T222 797Q259 797 290 784T345 748T381 693T394 625Q394 588 381 556T345 501T290 465T222 452Q176 452 141 467T83 509T48 574T37 655Q37 716 51 774T93 883T159 972T246 1034ZM221 702Q205 702 191 696T166 679T150 654T144 624Q144 592 166 569T221 547Q237 547 251 553T276 569T293 594T299 624Q299 656 276 679T221 702Z" horiz-adv-x="1390" unicode="ฑ"/>
			<glyph d="M894 268Q833 262 802 230T771 154Q771 109 788 91T831 74Q860 74 877 91T894 153ZM526 586Q493 586 470 563T448 509Q448 477 471 454T526 431Q558 431 580 453T603 509Q603 541 580 563T526 586ZM402 1034L565 869L727 1032Q779 1024 834 999T930 927T992 808T1014 633V350Q1089 343 1147 328T1257 290T1357 236T1442 164V1024H1562V0H1442Q1414 46 1367 89T1265 169T1150 230T1014 264V176Q1014 131 1003 95T971 35T912 -2T827 -16Q741 -16 696 30T652 154Q652 188 670 226T722 292T800 335T894 354V635Q894 689 886 734T862 815T817 872T738 908L565 743L391 908Q338 895 309 871T263 817T238 748T230 660Q230 598 241 542T266 430T291 311T302 176V113Q405 187 456 242T525 339Q470 344 443 357T396 392T364 443T353 508Q353 545 366 576T402 631T456 668T525 681Q567 681 600 666T655 626T689 566T701 491Q701 437 682 385T632 286T561 196T478 117T395 51T322 0H182V195Q182 272 171 330T146 441T121 546T110 662Q110 754 136 820T203 930T295 1000T402 1034Z" horiz-adv-x="1738" unicode="ฒ"/>
			<glyph d="M316 234Q300 234 286 228T261 211T245 186T239 156Q239 124 261 101T316 79Q332 79 346 85T371 101T388 126T394 156Q394 188 371 211T316 234ZM560 1042Q675 1042 759 1011T894 927T966 798T988 633V155Q1024 197 1072 235T1173 297T1278 337T1416 361V1024H1536V364Q1585 360 1630 343T1704 298T1750 232T1767 149Q1767 77 1728 30T1593 -16Q1555 -16 1518 -2T1459 35T1426 95T1416 176V264Q1331 255 1275 230T1165 169T1063 89T988 0H868V653Q868 718 852 770T800 861T704 919T561 940Q470 940 418 920T329 867T272 799T246 708H499V620Q392 599 328 542T264 395V325Q272 327 289 328T317 329Q354 329 385 316T440 280T476 225T489 157Q489 120 476 88T440 33T385 -3T317 -16Q280 -16 248 -3T193 33T157 88T144 157V405Q144 492 194 545T337 624H122V704Q136 775 168 836T254 944T384 1016T560 1042ZM1536 268V153Q1536 115 1553 99T1593 84Q1615 84 1632 100T1649 154Q1649 176 1641 195T1618 230T1582 255T1536 268Z" horiz-adv-x="1826" unicode="ณ"/>
			<glyph d="M565 1042Q793 1042 913 940T1034 633V0H914V623Q914 715 894 767T836 857T734 917T565 939Q463 939 403 918T305 862T248 783T230 662Q230 600 241 544T266 431T291 312T302 176V118Q407 184 469 241T550 339Q473 349 433 392T393 508Q393 545 406 576T442 631T496 668T565 681Q607 681 640 666T695 626T729 566T741 491Q741 436 719 384T661 286T580 196T488 118T398 52T322 0H182V195Q182 272 171 330T146 441T121 546T110 662Q110 755 140 826T229 945T374 1017T565 1042ZM566 586Q550 586 535 580T510 563T494 539T488 509Q488 477 511 454T566 431Q582 431 596 437T620 453T637 478T643 509Q643 541 620 563T566 586Z" horiz-adv-x="1177" unicode="ด"/>
			<glyph d="M402 1034L565 869L727 1032Q789 1024 844 999T940 927T1002 808T1024 633V0H904V623Q904 677 898 722T875 810T823 879T738 918L565 753L391 918Q344 905 312 876T262 812T237 738T230 662Q230 600 241 544T266 431T291 312T302 176V118Q407 184 470 241T551 339Q473 349 433 392T393 508Q393 545 406 576T442 631T496 668T565 681Q607 681 640 666T695 626T729 566T741 491Q741 436 719 384T661 286T580 196T488 118T398 52T322 0H182V195Q182 272 171 330T146 441T121 546T110 662Q110 754 135 820T203 930T296 1000T402 1034ZM566 586Q550 586 535 580T510 563T494 539T488 509Q488 477 511 454T566 431Q582 431 596 437T620 453T637 478T643 509Q643 541 620 563T566 586Z" horiz-adv-x="1177" unicode="ต"/>
			<glyph d="M573 1042Q697 1042 784 1011T927 927T1007 798T1032 633V0H912V623Q912 781 821 860T574 940Q493 940 432 920T334 870T271 803T240 708H493V620Q386 599 324 542T263 395V323Q268 325 286 327T316 329Q353 329 384 316T439 280T475 225T488 157Q488 120 475 88T439 33T384 -3T316 -16Q279 -16 247 -3T192 33T156 88T143 157V405Q143 492 193 545T337 624H116V709Q130 780 165 841T257 946T393 1016T573 1042ZM315 234Q299 234 285 228T260 211T244 186T238 156Q238 124 260 101T315 79Q331 79 345 85T370 101T387 126T393 156Q393 188 370 211T315 234Z" horiz-adv-x="1175" unicode="ถ"/>
			<glyph d="M215 1034Q252 1034 283 1021T338 984T375 929T388 861V158L849 1024H865Q903 1024 937 1013T997 979T1034 923T1045 844V0H925V864Q925 889 912 896T890 903L412 0H268V694Q261 692 243 690T215 689Q178 689 146 702T92 738T56 792T43 861Q43 898 56 929T92 984T146 1021T215 1034ZM216 939Q200 939 185 933T160 916T144 892T138 862Q138 830 161 807T216 784Q232 784 246 790T270 806T287 831T293 862Q293 894 270 916T216 939Z" horiz-adv-x="1208" unicode="ท"/>
			<glyph d="M401 1042Q440 1042 492 1039T597 1032T699 1025T779 1022Q793 1022 812 1023T849 1025T882 1028T903 1032V922Q896 919 880 917T847 915T810 914T779 914Q750 914 702 918T601 926T497 935T413 939Q339 939 303 920T252 875T233 818T229 735Q246 740 280 744T348 752T416 758T500 761Q615 761 695 743T825 686T898 586T921 441V274Q921 225 908 176T864 88T780 24T647 0H123V470H243V104H653Q717 104 759 143T801 254V459Q801 511 787 548T739 607T646 641T493 653Q439 653 382 649T275 639T181 627T110 614V708Q110 779 122 840T166 946T255 1016T401 1042Z" horiz-adv-x="1044" unicode="ธ"/>
			<glyph d="M216 939Q200 939 185 933T160 916T144 892T138 862Q138 830 161 807T216 784Q232 784 246 790T270 806T287 831T293 862Q293 894 270 916T216 939ZM215 1034Q252 1034 283 1021T338 984T375 929T388 861V160Q424 200 472 234T573 293T678 333T806 356V1024H926V360Q965 356 1010 340T1089 297T1140 236T1158 154Q1158 77 1113 30T983 -16Q945 -16 905 -2T844 35T814 95T806 176V264Q731 255 675 230T565 169T463 89T388 0H268V694Q261 692 244 690T215 689Q178 689 146 702T92 738T56 792T43 861Q43 898 56 929T92 984T146 1021T215 1034ZM926 268V143Q926 105 943 89T983 74Q1005 74 1022 90T1039 154Q1039 176 1031 195T1008 230T972 255T926 268Z" horiz-adv-x="1216" unicode="น"/>
			<glyph d="M216 939Q200 939 185 933T160 916T144 892T138 862Q138 830 161 807T216 784Q232 784 246 790T270 806T287 831T293 862Q293 894 270 916T216 939ZM215 1034Q252 1034 283 1021T338 984T375 929T388 861V104H744Q808 104 850 143T892 254V1024H1012V274Q1012 225 999 176T955 88T871 24T738 0H268V694Q262 692 244 690T215 689Q178 689 146 702T92 738T56 792T43 861Q43 898 56 929T92 984T146 1021T215 1034Z" horiz-adv-x="1165" unicode="บ"/>
			<glyph d="M216 939Q200 939 185 933T160 916T144 892T138 862Q138 830 161 807T216 784Q232 784 246 790T270 806T287 831T293 862Q293 894 270 916T216 939ZM892 1434H1012V274Q1012 225 999 176T955 88T871 24T738 0H268V694Q262 692 244 690T215 689Q178 689 146 702T92 738T56 792T43 861Q43 898 56 929T92 984T146 1021T215 1034Q252 1034 283 1021T338 984T375 929T388 861V104H744Q808 104 850 143T892 254Z" horiz-adv-x="1165" unicode="ป"/>
			<glyph d="M328 939Q296 939 273 916T251 862Q251 846 257 831T273 806T298 790T328 784Q360 784 383 807T406 862Q406 878 400 892T383 916T358 933T328 939ZM329 1034Q366 1034 397 1021T452 984T488 929T501 861Q501 824 488 792T452 738T397 702T329 689Q318 689 301 690T276 693V164L598 608L939 164V1024H1059V0H924L598 435L291 0H156V861Q156 898 169 929T205 984T260 1021T329 1034Z" horiz-adv-x="1225" unicode="ผ"/>
			<glyph d="M328 939Q296 939 273 916T251 862Q251 846 257 831T273 806T298 790T328 784Q360 784 383 807T406 862Q406 878 400 892T383 916T358 933T328 939ZM939 1434H1059V0H924L598 435L291 0H156V861Q156 898 169 929T205 984T260 1021T329 1034Q366 1034 397 1021T452 984T488 929T501 861Q501 824 488 792T452 738T397 702T329 689Q318 689 301 690T276 693V164L598 608L939 164Z" horiz-adv-x="1225" unicode="ฝ"/>
			<glyph d="M212 1034Q249 1034 280 1021T335 984T372 929T385 861V160Q391 186 399 218T416 280T433 337T446 377L670 1024H788L1010 378Q1015 365 1023 338T1040 281T1057 218T1071 160V1024H1191V0H1028L789 682Q781 706 770 741T750 810Q739 849 728 891Q717 850 706 810Q696 776 685 740T667 681L428 0H265V692Q256 690 236 689T212 689Q175 689 143 702T89 738T53 792T40 861Q40 898 53 929T89 984T143 1021T212 1034ZM213 939Q197 939 182 933T157 916T141 892T135 862Q135 830 158 807T213 784Q229 784 243 790T267 806T284 831T290 862Q290 894 267 916T213 939Z" horiz-adv-x="1367" unicode="พ"/>
			<glyph d="M1071 1434H1191V0H1028L789 682Q781 706 770 741T750 810Q739 849 728 891Q717 850 706 810Q696 776 685 740T667 681L428 0H265V692Q256 690 236 689T212 689Q175 689 143 702T89 738T53 792T40 861Q40 898 53 929T89 984T143 1021T212 1034Q249 1034 280 1021T335 984T372 929T385 861V160Q391 186 399 218T416 280T433 337T446 377L670 1024H788L1010 378Q1015 365 1023 338T1040 281T1057 218T1071 160ZM213 939Q197 939 182 933T157 916T141 892T135 862Q135 830 158 807T213 784Q229 784 243 790T267 806T284 831T290 862Q290 894 267 916T213 939Z" horiz-adv-x="1367" unicode="ฟ"/>
			<glyph d="M644 1042Q768 1042 852 1011T987 927T1060 798T1082 633V0H962V623Q962 712 946 765T896 856T797 917T645 940Q558 940 501 917T411 865T356 796T329 708H593V620Q486 599 437 542T388 395V157Q388 120 375 88T338 33T283 -3T215 -16Q178 -16 146 -3T92 33T56 88T43 157Q43 194 56 225T92 280T146 316T215 329Q227 329 244 327T268 324V405Q268 485 303 540T427 624H206V704Q220 775 252 836T337 944T467 1016T644 1042ZM216 234Q184 234 161 211T138 156Q138 140 144 126T160 101T185 85T216 79Q248 79 270 101T293 156Q293 172 287 186T270 211T246 228T216 234Z" horiz-adv-x="1225" unicode="ภ"/>
			<glyph d="M272 1034Q309 1034 340 1021T395 984T432 929T445 861V359Q510 350 563 336T668 297T773 238T863 163V1024H983V0H863Q835 46 783 92T676 174T565 232T445 264V176Q445 131 434 95T399 35T335 -2T248 -16Q164 -16 119 30T75 154Q75 202 94 240T145 305T219 346T325 363V692Q320 691 300 690T272 689Q235 689 203 702T149 738T113 792T100 861Q100 898 113 929T149 984T203 1021T272 1034ZM273 939Q257 939 242 933T217 916T201 892T195 862Q195 830 218 807T273 784Q289 784 303 790T327 806T344 831T350 862Q350 894 327 916T273 939ZM325 268Q280 265 259 255T223 230T200 195T192 152Q192 111 209 92T248 74Q284 74 304 92T325 151Z" horiz-adv-x="1149" unicode="ม"/>
			<glyph d="M313 939Q281 939 258 916T236 862Q236 846 242 831T258 806T283 790T313 784Q345 784 368 807T391 862Q391 878 385 892T368 916T343 933T313 939ZM314 1034Q351 1034 382 1021T437 984T473 929T486 861Q486 824 473 792T437 738T382 702T314 689Q299 689 282 690T261 693Q261 647 280 618T329 570T387 541T436 528V447Q415 443 387 433T328 406T279 360T261 291V104H657Q721 104 760 143T800 254V1024H920V274Q920 225 907 176T863 88T779 24T646 0H141V293Q141 340 154 373T188 430T235 466T286 487Q261 494 235 508T188 545T154 601T141 682V861Q141 898 154 929T190 984T245 1021T314 1034Z" horiz-adv-x="1073" unicode="ย"/>
			<glyph d="M324 1042Q363 1042 407 1039T496 1032T580 1025T652 1022Q666 1022 694 1023T751 1025T805 1028T836 1032V922Q829 919 804 917T750 915T693 914T652 914Q623 914 583 918T499 926T413 935T336 939Q274 939 236 921T184 874T168 818T167 743Q257 761 383 761Q475 761 541 743T651 686T714 586T734 441V157Q734 120 721 88T684 33T629 -3T561 -16Q524 -16 492 -3T438 33T402 88T389 157Q389 194 402 225T438 280T492 316T561 329Q573 329 591 327T614 325V469Q614 521 599 557T552 615T476 648T346 658Q313 658 272 655T190 646T110 634T43 619V708Q43 779 53 840T94 946T180 1016T324 1042ZM562 234Q530 234 507 211T484 156Q484 140 490 126T506 101T531 85T562 79Q594 79 616 101T639 156Q639 172 633 186T616 211T592 228T562 234Z" horiz-adv-x="879" unicode="ร"/>
			<glyph d="M573 1042Q697 1042 784 1011T927 927T1007 798T1032 633V-410H912V623Q912 772 821 856T574 940Q493 940 434 920T337 870T272 803T239 708H493V620Q386 599 324 542T263 395V323Q268 325 286 327T316 329Q353 329 384 316T439 280T475 225T488 157Q488 120 475 88T439 33T384 -3T316 -16Q279 -16 247 -3T192 33T156 88T143 157V405Q143 492 193 545T337 624H116V709Q130 780 165 841T257 946T393 1016T573 1042ZM315 234Q299 234 285 228T260 211T244 186T238 156Q238 124 260 101T315 79Q331 79 345 85T370 101T387 126T393 156Q393 188 370 211T315 234Z" horiz-adv-x="1175" unicode="ฤ"/>
			<glyph d="M515 1042Q626 1042 709 1011T849 926T933 797T961 633V0H840V253Q840 309 823 361T764 455T658 524T514 552Q243 552 243 341V324Q248 325 266 327T296 329Q333 329 364 316T419 280T455 225T468 157Q468 120 455 88T419 33T364 -3T296 -16Q259 -16 227 -3T172 33T136 88T123 157V349Q123 418 148 475T220 572T336 635T493 657Q623 657 707 607T836 481H840V647Q840 704 822 757T763 850T662 914T515 939Q467 939 416 928T316 896T219 846T132 777V917Q207 980 306 1011T515 1042ZM295 234Q279 234 265 228T240 211T224 186T218 156Q218 124 240 101T295 79Q311 79 325 85T350 101T367 126T373 156Q373 188 350 211T295 234Z" horiz-adv-x="1104" unicode="ล"/>
			<glyph d="M644 1042Q768 1042 852 1011T987 927T1060 798T1082 633V-410H962V623Q962 712 945 765T892 856T795 917T645 940Q558 940 504 917T415 865T357 796T329 708H593V620Q486 599 437 542T388 395V157Q388 120 375 88T338 33T283 -3T215 -16Q178 -16 146 -3T92 33T56 88T43 157Q43 194 56 225T92 280T146 316T215 329Q227 329 244 327T268 324V405Q268 485 303 540T427 624H206V704Q220 775 252 836T337 944T467 1016T644 1042ZM216 234Q184 234 161 211T138 156Q138 140 144 126T160 101T185 85T216 79Q248 79 270 101T293 156Q293 172 287 186T270 211T246 228T216 234Z" horiz-adv-x="1225" unicode="ฦ"/>
			<glyph d="M373 1043Q587 1043 688 945T789 640V157Q789 120 775 88T739 33T684 -3T615 -16Q578 -16 546 -3T492 33T456 88T443 157Q443 194 456 225T492 280T546 316T615 329Q626 329 644 327T668 325V650Q668 793 590 866T373 940Q327 940 276 929T178 901T89 862T20 820V960Q48 978 86 993T171 1019T268 1036T373 1043ZM616 234Q584 234 561 211T538 156Q538 140 544 126T560 101T585 85T616 79Q648 79 670 101T693 156Q693 172 687 186T670 211T646 228T616 234Z" horiz-adv-x="932" unicode="ว"/>
			<glyph d="M896 1126H1027Q996 1011 922 923Q973 872 998 800T1024 633V0H904V653Q904 710 887 762T840 849Q811 828 777 806T710 765H567Q583 775 604 790T650 825T700 865T747 908Q708 924 668 931T565 939Q477 939 409 913T302 850T246 768T230 662Q230 602 243 548T277 430Q312 488 340 523T403 584T482 627T580 643Q620 643 655 631T715 597T755 542T770 467Q770 430 757 398T720 344T665 308T597 295Q560 295 528 308T474 344T438 398T425 467Q426 484 428 488Q412 475 391 453T350 398T315 325T302 237V0H182V274Q181 322 169 365T145 452T121 547T110 662Q110 755 140 826T228 945T372 1017T565 1042Q714 1042 829 989Q858 1026 874 1061T896 1126ZM598 545Q582 545 567 539T542 522T526 498T520 468Q520 436 543 413T598 390Q614 390 628 396T652 412T669 437T675 468Q675 500 652 522T598 545Z" horiz-adv-x="1180" unicode="ศ"/>
			<glyph d="M215 1034Q252 1034 283 1021T338 984T375 929T388 861V104H744Q808 104 850 143T892 254V415Q847 401 801 393T708 385Q656 385 616 398T550 434T509 489T496 557Q496 592 508 622T542 674T594 708T659 721Q694 721 724 708T776 674T810 622T823 557Q823 543 819 524T804 491Q848 503 892 521V1024H1012V585Q1112 661 1178 759V605Q1149 570 1106 535T1012 471V274Q1012 225 999 176T955 88T871 24T738 0H268V693Q261 691 243 690T215 689Q178 689 146 702T92 738T56 792T43 861Q43 898 56 929T92 984T146 1021T215 1034ZM216 939Q200 939 185 933T160 916T144 892T138 862Q138 830 161 807T216 784Q232 784 246 790T270 806T287 831T293 862Q293 894 270 916T216 939ZM660 627Q630 627 610 607T590 558Q590 528 610 508T660 488Q689 488 709 508T729 558Q729 587 709 607T660 627Z" horiz-adv-x="1209" unicode="ษ"/>
			<glyph d="M804 1126H935Q920 1069 891 1015T835 929Q899 864 925 791T951 633V0H830V263Q830 319 811 372T754 462T656 526T514 552Q243 548 243 341V327Q248 328 269 328T296 329Q333 329 364 316T419 280T455 225T468 157Q468 120 455 88T419 33T364 -3T296 -16Q259 -16 227 -3T172 33T136 88T123 157V349Q123 418 148 475T220 572T336 635T493 657Q620 657 704 607T826 481H830V631Q830 694 812 753T746 854Q717 832 684 810T618 771H475Q491 781 513 797T560 832T609 872T655 914Q621 928 587 933T515 939Q467 939 416 928T316 896T219 846T132 777V917Q207 980 306 1011T515 1042Q649 1042 742 992Q768 1029 783 1063T804 1126ZM295 234Q279 234 265 228T240 211T224 186T218 156Q218 124 240 101T295 79Q311 79 325 85T350 101T367 126T373 156Q373 188 350 211T295 234Z" horiz-adv-x="1104" unicode="ส"/>
			<glyph d="M215 1034Q252 1034 283 1021T338 984T375 929T388 861V282Q421 330 466 382T560 489T662 595T773 704Q746 724 726 740T692 775T667 820T657 879Q657 915 669 943T704 992T758 1023T828 1034Q914 1034 962 995T1010 889Q1010 862 1002 837T981 791T951 752T922 722Q992 668 1018 613T1044 493V0H924V491Q924 523 918 548T895 595T867 628T847 646Q817 618 769 571T671 471T570 357T479 239T413 126T388 28V0H268V694Q263 693 243 691T215 689Q178 689 146 702T92 738T56 792T43 861Q43 898 56 929T92 984T146 1021T215 1034ZM216 939Q200 939 185 933T160 916T144 892T138 862Q138 830 161 807T216 784Q232 784 246 790T270 806T287 831T293 862Q293 894 270 916T216 939ZM829 942Q802 942 783 924T764 876Q764 847 786 823T848 777Q867 794 882 819T897 874Q897 905 879 923T829 942Z" horiz-adv-x="1207" unicode="ห"/>
			<glyph d="M1371 1329V1151Q1336 1105 1294 1068T1201 1010V0H1028L789 692Q781 715 770 749T751 816T735 873T728 900Q727 897 720 873T704 816T685 748T667 691L428 0H265V693Q260 692 241 690T212 689Q175 689 143 702T89 738T53 792T40 861Q40 898 53 929T89 984T143 1021T212 1034Q249 1034 280 1021T335 984T372 929T385 861V169Q391 195 399 227T416 289T433 346T446 386L670 1024H788L1010 387Q1015 374 1023 347T1041 290T1060 227T1081 149V943Q1076 942 1057 940T1028 939Q991 939 959 952T905 988T869 1042T856 1111Q856 1148 869 1179T905 1234T959 1271T1028 1284Q1065 1284 1096 1271T1151 1234T1188 1179T1201 1111Q1224 1126 1247 1149T1292 1202T1334 1263T1371 1329ZM213 939Q197 939 182 933T157 916T141 892T135 862Q135 830 158 807T213 784Q229 784 243 790T267 806T284 831T290 862Q290 894 267 916T213 939ZM1029 1189Q1013 1189 998 1183T973 1166T957 1142T951 1112Q951 1080 974 1057T1029 1034Q1045 1034 1059 1040T1083 1056T1100 1081T1106 1112Q1106 1144 1083 1166T1029 1189Z" horiz-adv-x="1371" unicode="ฬ"/>
			<glyph d="M493 1042Q604 1042 687 1011T827 926T911 797T939 633V295Q939 228 915 171T843 73T719 9T541 -14Q435 -14 359 9T236 73T165 172T143 298V468Q143 505 156 536T192 591T247 628T316 641Q353 641 384 628T439 591T475 536T488 468Q488 431 475 399T439 345T384 309T316 296Q306 296 287 298T263 301V281Q263 188 336 138T541 89Q681 89 749 146T818 292V631Q818 718 794 770T732 856T633 915T493 939Q445 939 394 928T294 896T197 846T110 777V917Q185 980 284 1011T493 1042ZM315 546Q283 546 260 523T238 469Q238 453 244 438T260 413T285 397T315 391Q347 391 370 414T393 469Q393 485 387 499T370 523T345 540T315 546Z" horiz-adv-x="1082" unicode="อ"/>
			<glyph d="M482 957Q411 957 366 948T300 927T269 900T260 867Q260 850 268 836T295 811T347 795T447 790Q505 790 546 795T628 807T711 823T783 846Q768 868 737 888T670 924T586 948T482 957ZM482 1042Q647 1042 736 1004T881 904Q919 930 957 960T1030 1028V899Q1002 873 979 854T925 815Q934 793 936 760T939 691V295Q939 228 915 171T843 74T719 9T541 -14Q435 -14 359 9T236 74T165 173T143 298V448Q143 485 156 516T192 571T247 608T316 621Q353 621 384 608T439 571T475 516T488 448Q488 411 475 379T439 325T384 289T316 276Q304 276 286 277T263 280Q265 184 338 136T541 89Q658 89 738 140T818 299V689Q818 709 816 726T812 755Q746 731 653 715T444 700Q364 700 304 711T205 745T145 801T126 866Q126 906 147 937T212 993T323 1030T482 1042ZM315 526Q283 526 260 503T238 449Q238 433 244 418T260 393T285 377T315 371Q347 371 370 394T393 449Q393 465 387 479T370 503T345 520T315 526Z" horiz-adv-x="1101" unicode="ฮ"/>
			<glyph d="M737 1024H859V0H739V803H735Q706 748 663 696T567 603T450 539T309 515Q185 515 124 572T63 732Q63 788 82 829T131 896T200 934T278 947Q332 947 374 930V819Q354 829 331 835T282 842Q233 842 202 811T172 732Q172 677 209 643T320 610Q403 610 471 646T589 738T678 866T737 1024Z" horiz-adv-x="1035" unicode="ฯ"/>
			<glyph d="M662 468V300Q634 266 593 231T500 169T385 125T250 108Q198 108 158 121T92 157T51 212T38 280Q38 315 50 345T84 397T136 431T201 444Q236 444 266 431T318 397T352 345T365 280Q365 266 361 247T346 214Q385 223 430 246T519 304T600 380T662 468ZM202 350Q172 350 152 330T132 281Q132 251 152 231T202 211Q231 211 251 231T271 281Q271 310 251 330T202 350ZM662 997V829Q634 795 593 760T500 698T385 654T250 637Q198 637 158 650T92 686T51 741T38 809Q38 844 50 874T84 926T136 960T201 973Q236 973 266 960T318 926T352 874T365 809Q365 795 361 776T346 743Q385 752 430 775T519 833T600 909T662 997ZM202 879Q172 879 152 859T132 810Q132 780 152 760T202 740Q231 740 251 760T271 810Q271 839 251 859T202 879Z" horiz-adv-x="700" unicode="ะ"/>
			<glyph d="M-20 1486V1318Q-48 1284 -89 1249T-182 1187T-297 1143T-432 1126Q-484 1126 -523 1139T-590 1175T-630 1230T-644 1298Q-644 1333 -632 1363T-598 1415T-546 1449T-481 1462Q-446 1462 -416 1449T-364 1415T-329 1363T-317 1298Q-317 1284 -321 1265T-336 1232Q-297 1241 -251 1264T-162 1322T-81 1398T-20 1486ZM-480 1368Q-510 1368 -530 1348T-550 1299Q-550 1269 -530 1249T-480 1229Q-451 1229 -431 1249T-411 1299Q-411 1328 -431 1348T-480 1368Z" unicode="ั"/>
			<glyph d="M373 1043Q587 1043 688 945T789 640V0H668V638Q668 808 583 874T373 940Q327 940 276 929T178 901T89 862T20 820V960Q48 978 86 993T171 1019T268 1036T373 1043Z" horiz-adv-x="932" unicode="า"/>
			<glyph d="M373 1043Q587 1043 688 945T789 640V0H668V638Q668 808 583 874T373 940Q327 940 276 929T178 901T89 862T20 820V960Q48 978 86 993T171 1019T268 1036T373 1043ZM-229 1337Q-258 1337 -278 1317T-299 1268Q-299 1239 -278 1218T-229 1198Q-200 1198 -180 1218T-160 1268Q-160 1297 -180 1317T-229 1337ZM-229 1427Q-196 1427 -167 1414T-116 1380T-82 1330T-70 1268Q-70 1235 -82 1206T-116 1156T-167 1122T-229 1110Q-262 1110 -291 1122T-341 1156T-374 1206T-387 1268Q-387 1301 -374 1330T-341 1380T-291 1414T-229 1427Z" horiz-adv-x="932" unicode="ำ"/>
			<glyph d="M-614 1438Q-544 1438 -478 1416T-358 1351T-262 1247T-202 1106V1097Q-307 1117 -403 1130T-592 1152T-780 1163T-975 1166Q-946 1297 -854 1367T-614 1438ZM-619 1360Q-713 1360 -773 1327T-857 1235Q-561 1235 -319 1192Q-337 1225 -366 1255T-433 1309T-517 1346T-619 1360Z" unicode="ิ"/>
			<glyph d="M-282 1501H-202V1097Q-307 1117 -403 1130T-592 1152T-780 1163T-975 1166Q-946 1297 -854 1367T-614 1438Q-517 1438 -430 1396T-282 1275ZM-619 1360Q-713 1360 -773 1327T-857 1235Q-561 1235 -319 1192Q-337 1225 -366 1255T-433 1309T-517 1346T-619 1360Z" unicode="ี"/>
			<glyph d="M-278 1509Q-248 1509 -222 1498T-176 1467T-145 1422T-134 1366Q-134 1313 -167 1275T-250 1228Q-218 1172 -202 1106V1097Q-307 1117 -403 1130T-592 1152T-780 1163T-975 1166Q-946 1297 -854 1367T-614 1438Q-562 1438 -512 1425T-418 1390Q-414 1416 -401 1437T-369 1475T-327 1500T-278 1509ZM-619 1360Q-713 1360 -773 1327T-857 1235Q-561 1235 -319 1192Q-337 1225 -366 1255T-433 1309T-517 1346T-619 1360ZM-278 1430Q-304 1430 -322 1411T-341 1366Q-341 1340 -322 1321T-278 1303Q-252 1303 -233 1321T-214 1366Q-214 1392 -233 1411T-278 1430Z" unicode="ึ"/>
			<glyph d="M-436 1501H-356V1349Q-315 1317 -282 1275V1501H-202V1097Q-307 1117 -403 1130T-592 1152T-780 1163T-975 1166Q-946 1297 -854 1367T-614 1438Q-567 1438 -522 1428T-436 1399ZM-619 1360Q-713 1360 -773 1327T-857 1235Q-561 1235 -319 1192Q-337 1225 -366 1255T-433 1309T-517 1346T-619 1360Z" unicode="ื"/>
			<glyph d="M-283 -108Q-224 -108 -192 -141T-160 -225V-481H-240V-323Q-245 -326 -259 -330T-291 -334Q-315 -334 -335 -325T-371 -301T-395 -265T-404 -220Q-404 -198 -396 -178T-372 -142T-334 -117T-283 -108ZM-291 -169Q-312 -169 -327 -184T-342 -220Q-342 -241 -327 -256T-291 -271Q-269 -271 -254 -256T-240 -220Q-240 -199 -254 -184T-291 -169Z" unicode="ุ"/>
			<glyph d="M-607 -169Q-628 -169 -643 -184T-658 -220Q-658 -241 -643 -256T-607 -271Q-585 -271 -570 -256T-556 -220Q-556 -199 -570 -184T-607 -169ZM-599 -108Q-540 -108 -508 -141T-476 -225V-403H-421Q-372 -403 -342 -386T-296 -334T-275 -247T-270 -125H-155Q-155 -171 -156 -215T-165 -299T-189 -372T-235 -429T-310 -467T-421 -481H-556V-323Q-561 -326 -575 -330T-607 -334Q-631 -334 -651 -325T-687 -301T-711 -265T-720 -220Q-720 -198 -712 -178T-688 -142T-650 -117T-599 -108Z" unicode="ู"/>
			<glyph d="M-249 -125Q-230 -125 -213 -132T-183 -153T-164 -183T-157 -219Q-157 -258 -183 -284T-249 -311Q-289 -311 -315 -284T-341 -219Q-341 -200 -334 -183T-315 -153T-286 -132T-249 -125Z" unicode="ฺ"/>
			<glyph d="M510 1596H618V1433Q683 1428 738 1410Q810 1386 860 1342T938 1238T965 1104Q965 1042 948 988T899 889T820 812T715 761V757Q787 750 846 722T947 649T1012 543T1035 411Q1035 320 1002 244T909 114T768 30Q699 4 618 0V-160H510V0H186V1434H510ZM618 677V123Q739 133 810 195Q896 270 896 407Q896 644 618 677ZM319 683V121H510V683ZM319 1312V803H510V1312ZM618 1306V816L637 822Q696 841 738 877T802 964T825 1079Q825 1276 618 1306Z" horiz-adv-x="1144" unicode="฿"/>
			<glyph d="M328 241Q312 241 298 235T273 218T257 193T251 163Q251 131 273 108T328 86Q344 86 358 92T383 108T400 133T406 163Q406 195 383 218T328 241ZM156 1024H276V331Q281 332 300 334T329 336Q366 336 397 323T452 287T488 232T501 164Q501 127 488 95T452 40T397 4T329 -9Q292 -9 260 4T205 40T169 95T156 164Z" horiz-adv-x="544" unicode="เ"/>
			<glyph d="M328 241Q312 241 298 235T273 218T257 193T251 163Q251 131 273 108T328 86Q344 86 358 92T383 108T400 133T406 163Q406 195 383 218T328 241ZM156 1024H276V331Q281 332 300 334T329 336Q366 336 397 323T452 287T488 232T501 164Q501 127 488 95T452 40T397 4T329 -9Q292 -9 260 4T205 40T169 95T156 164ZM773 241Q757 241 743 235T718 218T702 193T696 163Q696 131 718 108T773 86Q789 86 803 92T828 108T845 133T851 163Q851 195 828 218T773 241ZM601 1024H721V331Q726 332 745 334T774 336Q811 336 842 323T897 287T933 232T946 164Q946 127 933 95T897 40T842 4T774 -9Q737 -9 705 4T650 40T614 95T601 164Z" horiz-adv-x="989" unicode="แ"/>
			<glyph d="M622 241Q606 241 592 235T567 218T551 193T545 163Q545 131 567 108T622 86Q638 86 652 92T677 108T694 133T700 163Q700 195 677 218T622 241ZM363 1892Q402 1892 442 1889T522 1882T596 1875T660 1872Q703 1872 736 1875T783 1882V1776Q769 1771 736 1767T662 1764Q637 1764 600 1768T522 1776T440 1785T368 1789Q316 1789 274 1779T205 1744T166 1685T154 1591Q180 1600 224 1609T327 1618Q377 1618 424 1601T504 1548T553 1454T570 1312V332Q578 334 595 335T623 336Q660 336 691 323T746 287T782 232T795 164Q795 127 782 95T746 40T691 4T623 -9Q586 -9 554 4T499 40T463 95T450 164V1342Q450 1437 412 1475T293 1514Q266 1514 234 1509T169 1497T104 1480T43 1461V1556Q43 1648 64 1712T127 1816T227 1874T363 1892Z" horiz-adv-x="838" unicode="โ"/>
			<glyph d="M585 241Q569 241 555 235T530 218T514 193T508 163Q508 131 530 108T585 86Q601 86 615 92T640 108T657 133T663 163Q663 195 640 218T585 241ZM399 1892Q470 1892 536 1872T645 1816T711 1730T744 1607Q651 1576 592 1493T533 1270V331Q540 333 557 334T586 336Q623 336 654 323T709 287T745 232T758 164Q758 127 745 95T709 40T654 4T586 -9Q549 -9 517 4T462 40T426 95T413 164V1272Q413 1412 465 1498T620 1624Q617 1664 601 1695T561 1748T495 1783T394 1797Q323 1797 265 1767T187 1688Q192 1690 202 1691T221 1692Q258 1692 289 1679T344 1643T380 1588T393 1520Q393 1483 380 1451T344 1396T289 1360T221 1347Q175 1347 140 1364T82 1410T47 1481T36 1570Q36 1624 54 1681T115 1785T227 1862T399 1892ZM220 1597Q204 1597 190 1591T165 1574T149 1549T143 1519Q143 1487 165 1464T220 1442Q236 1442 250 1448T275 1464T292 1489T298 1519Q298 1551 275 1574T220 1597Z" horiz-adv-x="801" unicode="ใ"/>
			<glyph d="M622 241Q606 241 592 235T567 218T551 193T545 163Q545 131 567 108T622 86Q638 86 652 92T677 108T694 133T700 163Q700 195 677 218T622 241ZM-30 1892H74Q87 1872 95 1838T109 1772L143 1537Q148 1500 152 1479T163 1445T177 1428T193 1425Q204 1425 209 1429T219 1445T228 1479T238 1537L257 1675Q264 1727 277 1767T312 1835T366 1877T437 1892Q505 1892 537 1835T570 1675V332Q579 334 591 335T623 336Q660 336 691 323T746 287T782 232T795 164Q795 127 782 95T746 40T691 4T623 -9Q586 -9 554 4T499 40T463 95T450 164V1669Q450 1732 444 1768T413 1804Q389 1804 379 1768T362 1669L346 1550Q340 1502 329 1462T301 1395T257 1352T193 1337Q154 1337 127 1352T83 1395T55 1462T39 1550L7 1794Q2 1831 -7 1851T-30 1892Z" horiz-adv-x="817" unicode="ไ"/>
			<glyph d="M373 1043Q587 1043 688 945T789 640V-410H668V638Q668 802 583 871T373 940Q327 940 276 929T178 901T89 862T20 820V960Q48 978 86 993T171 1019T268 1036T373 1043Z" horiz-adv-x="932" unicode="ๅ"/>
			<glyph d="M246 1034L385 869L523 1034Q570 1029 612 1010T685 959T731 880T746 772V-410H625V748Q625 788 620 818T603 868T571 904T517 928L385 769L248 928Q232 917 214 893T183 837T164 775T158 721Q167 726 184 731T222 737Q259 737 290 724T345 688T381 633T394 565Q394 528 381 496T345 441T290 405T222 392Q176 392 141 409T83 455T48 526T37 615Q37 684 51 748T93 868T159 966T246 1034ZM221 642Q205 642 191 636T166 619T150 594T144 564Q144 532 166 509T221 487Q237 487 251 493T276 509T293 534T299 564Q299 596 276 619T221 642Z" horiz-adv-x="909" unicode="ๆ"/>
			<glyph d="M-137 1600V1507Q-175 1465 -230 1442T-346 1419H-651Q-680 1419 -705 1412T-748 1393T-778 1360T-789 1313Q-789 1282 -769 1256T-715 1214Q-684 1259 -647 1286T-556 1313Q-513 1313 -478 1292T-414 1245T-358 1199T-302 1178Q-285 1178 -276 1182T-259 1193Q-297 1194 -321 1220T-346 1283Q-346 1318 -322 1345T-252 1372Q-205 1372 -179 1342T-153 1268Q-153 1234 -165 1203T-200 1150T-256 1113T-333 1099Q-378 1099 -411 1119T-470 1163T-520 1208T-568 1228Q-589 1228 -604 1218T-633 1190T-659 1149T-687 1099Q-725 1116 -758 1137T-816 1185T-856 1244T-871 1313Q-871 1366 -851 1401T-797 1457T-719 1488T-626 1497H-388Q-300 1497 -237 1530T-137 1600ZM-254 1323Q-271 1323 -282 1311T-293 1285Q-293 1265 -282 1253T-254 1241Q-237 1241 -226 1253T-215 1282Q-215 1299 -226 1311T-254 1323Z" unicode="็"/>
			<glyph d="M-280 1440H-180V1110H-280Z" unicode="่"/>
			<glyph d="M-636 1521Q-599 1521 -567 1509T-513 1476T-478 1421T-465 1347Q-465 1301 -484 1262T-543 1196Q-437 1196 -374 1225T-279 1302T-237 1406T-226 1521H-111Q-114 1476 -121 1428T-144 1335T-190 1248T-268 1177T-387 1128T-557 1110H-653V1198Q-607 1212 -576 1248T-546 1337Q-551 1327 -559 1315T-581 1294T-613 1278T-656 1272Q-683 1272 -705 1281T-744 1308T-770 1348T-780 1398Q-780 1422 -770 1444T-743 1483T-698 1511T-636 1521ZM-646 1453Q-669 1453 -685 1436T-702 1397Q-702 1374 -685 1357T-646 1341Q-623 1341 -606 1357T-590 1397Q-590 1420 -606 1436T-646 1453Z" unicode="้"/>
			<glyph d="M-668 1509L-549 1407L-434 1509Q-365 1477 -328 1426T-291 1303Q-291 1276 -293 1249T-298 1213Q-264 1213 -241 1235T-204 1297T-183 1391T-175 1509H-60Q-64 1468 -68 1422T-84 1333T-116 1248T-174 1177T-266 1128T-403 1110Q-389 1156 -383 1200T-377 1276Q-377 1327 -389 1358T-437 1409L-549 1310L-664 1409Q-699 1390 -715 1360T-732 1296Q-732 1271 -729 1254T-717 1216Q-716 1254 -689 1278T-627 1303Q-592 1303 -565 1280T-538 1209Q-538 1161 -567 1135T-642 1110Q-677 1110 -708 1123T-762 1160T-798 1218T-811 1296Q-811 1368 -774 1422T-668 1509ZM-628 1252Q-645 1252 -657 1240T-669 1211Q-669 1194 -657 1182T-628 1170Q-611 1170 -599 1182T-587 1211Q-587 1228 -599 1240T-628 1252Z" unicode="๊"/>
			<glyph d="M-270 1440H-190V1313H-63V1237H-190V1110H-270V1237H-397V1313H-270Z" unicode="๋"/>
			<glyph d="M-96 1565H37Q29 1520 16 1479T-19 1408T-76 1360T-161 1342Q-195 1342 -233 1344T-307 1348T-370 1353T-410 1355Q-403 1349 -395 1339T-379 1315T-367 1284T-362 1249Q-362 1179 -405 1137T-528 1096Q-606 1096 -651 1137T-697 1250Q-697 1287 -684 1319T-644 1374T-579 1411T-490 1425Q-456 1425 -428 1424T-373 1422T-316 1420T-248 1419Q-179 1419 -143 1457T-96 1565ZM-528 1326Q-563 1326 -584 1305T-606 1251Q-606 1216 -584 1196T-528 1176Q-496 1176 -474 1196T-453 1251Q-453 1285 -474 1305T-528 1326Z" unicode="์"/>
			<glyph d="M-229 1337Q-258 1337 -278 1317T-299 1268Q-299 1239 -278 1218T-229 1198Q-200 1198 -180 1218T-160 1268Q-160 1297 -180 1317T-229 1337ZM-229 1427Q-196 1427 -167 1414T-116 1380T-82 1330T-70 1268Q-70 1235 -82 1206T-116 1156T-167 1122T-229 1110Q-262 1110 -291 1122T-341 1156T-374 1206T-387 1268Q-387 1301 -374 1330T-341 1380T-291 1414T-229 1427Z" unicode="ํ"/>
			<glyph d="M-179 1567Q-160 1567 -135 1564T-95 1556V1458Q-101 1460 -112 1462T-135 1465T-159 1467T-179 1468Q-244 1468 -270 1455T-297 1423Q-297 1407 -286 1397T-259 1381T-219 1374T-174 1372V1296Q-197 1296 -229 1294T-291 1285T-342 1266T-363 1234Q-363 1213 -342 1200T-285 1187Q-254 1187 -223 1193T-166 1208V1105Q-188 1097 -221 1093T-285 1089Q-323 1089 -356 1097T-413 1122T-451 1161T-465 1212Q-465 1262 -426 1293T-316 1339Q-329 1343 -342 1351T-367 1372T-385 1400T-392 1434Q-392 1472 -373 1497T-323 1538T-254 1560T-179 1567Z" unicode="๎"/>
			<glyph d="M555 913Q650 913 734 877T880 778T979 632T1016 453Q1016 357 979 272T880 125T734 26T555 -10Q459 -10 374 26T227 125T128 272T92 453Q92 548 128 632T227 778T374 877T555 913ZM555 816Q479 816 413 787T298 710T222 595T194 453Q194 377 222 310T298 195T413 117T555 88Q631 88 696 117T809 195T886 310T914 453Q914 529 886 595T809 710T696 787T555 816ZM555 590Q584 590 608 579T651 550T681 506T692 453Q692 424 681 398T651 354T608 324T555 313Q527 313 501 324T457 354T428 398T417 453Q417 481 428 506T457 550T501 579T555 590Z" horiz-adv-x="1108" unicode="๏"/>
			<glyph d="M573 736Q499 736 437 717T328 666T243 575T204 412Q204 308 243 248T328 156T437 105T573 87Q648 87 711 105T821 156T906 248T945 412Q945 516 906 575T821 666T711 717T573 736ZM573 834Q678 834 768 805T924 723T1029 590T1067 412Q1067 313 1029 234T924 102T768 19T573 -10Q470 -10 380 19T224 102T120 234T82 412Q82 512 120 590T224 723T380 805T573 834Z" horiz-adv-x="1149" unicode="๐"/>
			<glyph d="M628 834Q750 834 850 801T1021 708T1131 566T1170 385Q1170 299 1146 232T1080 116T975 36T838 -10V89Q925 112 986 181T1048 385Q1048 491 1004 555T906 656T780 714T628 736Q545 736 474 715T349 657T252 556T208 383Q208 319 226 264T284 166T361 106T435 91Q499 91 550 122T618 190Q557 194 527 207T477 244T444 297T433 364Q433 401 446 432T482 487T536 524T605 537Q642 537 674 524T731 488T769 430T783 352Q783 275 759 208T690 93T579 17T430 -10Q360 -10 297 16T187 92T113 215T86 383Q86 481 123 563T231 706T402 800T628 834ZM606 442Q590 442 575 436T550 419T534 395T528 365Q528 333 551 310T606 287Q622 287 636 293T660 309T677 334T683 365Q683 397 660 419T606 442Z" horiz-adv-x="1256" unicode="๑"/>
			<glyph d="M153 1245H271V253Q271 180 317 141T436 103H896Q968 103 1008 141T1049 253V600Q1049 629 1044 654T1030 699T1005 729T966 740Q930 740 904 709T878 626H752Q752 679 727 709T666 740Q640 740 625 726T602 689T591 637T589 548Q589 524 592 497T601 447T618 404T643 378Q641 382 640 389T640 404Q640 432 650 455T677 496T717 523T769 533Q797 533 820 523T861 496T889 455T899 404Q899 333 854 299T737 265Q678 265 629 282T551 335T502 424T483 548Q483 605 491 657T521 749T575 812T666 836Q699 836 724 826T767 800T797 763T815 720H817Q822 743 835 764T868 801T917 826T980 836Q1008 836 1048 819T1114 769T1154 684T1169 565V274Q1169 225 1155 176T1113 88T1030 24T895 0H437Q356 0 301 24T214 88T167 176T153 274ZM770 461Q746 461 728 444T711 403Q711 378 728 361T770 345Q794 345 811 361T828 403Q828 428 811 444T770 461Z" horiz-adv-x="1322" unicode="๒"/>
			<glyph d="M388 835Q441 835 480 817T545 773T588 715T612 655Q620 684 636 715T679 773T745 817T836 835Q905 835 959 804T1052 718T1111 587T1131 422Q1131 336 1110 263T1049 135T954 42T828 -10V90Q905 114 957 190T1009 422Q1009 511 994 563T955 654T894 715T822 738Q755 738 711 679T668 492H551Q551 621 506 679T403 738Q367 738 331 715T269 654T225 562T208 420Q208 373 214 336T229 270T253 211T283 164Q285 220 298 248T334 297T387 329T454 340Q491 340 523 327T578 291T614 237T628 168Q628 131 615 98T579 42T520 4T442 -10Q358 -10 292 22T180 111T110 247T86 420Q86 510 107 586T168 717T263 804T388 835ZM455 246Q423 245 400 222T377 167Q377 135 400 112T455 90Q487 90 509 112T532 167Q532 183 526 197T509 222T485 239T455 246Z" horiz-adv-x="1217" unicode="๓"/>
			<glyph d="M953 1163H1071Q1079 1149 1084 1127T1090 1077Q1090 1032 1066 982T996 894T881 828T720 779Q661 765 603 749T493 713T392 665T302 588T240 485T220 362Q220 279 248 228T312 150T389 108T476 95Q497 95 524 98T580 106T637 115T689 123Q672 132 653 150T617 195T590 255T579 326Q579 379 597 425T650 505T737 558T856 577Q948 577 1002 530T1057 399Q1057 362 1043 330T1007 275T952 240T883 227Q847 227 816 238T763 269T727 323T711 403Q700 387 694 365T688 315Q688 273 708 240T759 185T833 148T922 128Q980 122 1029 111T1111 86V-18Q1094 -10 1064 0T999 17T923 30T847 35Q808 35 758 29T658 15T560 2T476 -4Q383 -4 312 22T195 97T124 212T100 360Q100 479 142 564T256 709T433 808T664 876Q813 906 891 955T970 1075Q970 1097 965 1121T953 1163ZM884 477Q852 477 829 454T806 400Q806 368 829 345T884 321Q900 321 914 327T938 344T955 369T961 400Q961 432 938 454T884 477Z" horiz-adv-x="1221" unicode="๔"/>
			<glyph d="M953 1163H1071Q1079 1149 1084 1127T1090 1077Q1090 1032 1066 982T996 894T881 828T720 779Q661 765 603 749T493 713T392 665T301 586T239 483T220 362Q220 272 246 227T310 151T390 108T476 95Q497 95 524 98T580 106T637 115T689 123Q672 132 653 150T617 195T590 255T579 326Q579 379 597 425T650 505T737 558T856 577Q948 577 1002 530T1057 399Q1057 362 1043 330T1007 275T952 240T883 227Q847 227 816 238T763 269T727 320T711 403Q701 392 694 368T688 315Q688 273 708 240T759 185T833 148T922 128Q980 122 1029 111T1111 86V-18Q1094 -10 1064 0T999 17T923 30T847 35Q808 35 758 29T658 15T560 2T476 -4Q383 -4 312 22T195 97T124 212T100 360Q100 445 123 512T185 632T278 725T403 796Q355 842 355 921Q355 958 368 990T403 1045T458 1081T527 1095Q611 1095 658 1040T705 894Q705 888 704 885Q829 915 899 962T970 1075Q970 1097 965 1121T953 1163ZM884 477Q852 477 829 454T806 400Q806 368 829 345T884 321Q900 321 914 327T938 344T955 369T961 400Q961 432 938 454T884 477ZM527 1000Q495 1000 472 977T449 922Q449 890 472 867T527 844Q559 844 582 867T605 922Q605 954 582 977T527 1000Z" horiz-adv-x="1221" unicode="๕"/>
			<glyph d="M20 1143H164Q186 1108 205 1064T246 974T282 876T307 779Q338 793 394 804T525 815Q620 815 695 788T823 711T904 586T932 416Q932 322 902 244T818 109T685 21T507 -10Q427 -10 357 10T235 71T154 166T124 279Q124 327 138 363T177 424T237 461T314 474Q352 474 383 460T437 424T473 369T486 300Q486 263 472 231T436 176T381 141T312 128Q326 117 345 109T387 95T434 87T483 85Q564 85 618 104T715 162T784 256T810 416Q810 510 784 562T720 649T628 702T514 720Q482 720 447 715T379 703T315 685T258 662Q247 701 235 732T203 813T159 910T112 1003T65 1083T20 1143ZM314 379Q282 379 259 356T236 301Q236 269 259 246T314 223Q346 223 369 246T392 301Q392 333 369 356T314 379Z" horiz-adv-x="1002" unicode="๖"/>
			<glyph d="M1250 1245H1368V274Q1368 225 1351 176T1298 88T1205 24T1067 0H847Q892 97 913 199T935 422Q935 511 928 558T906 645T858 712T778 740Q716 740 673 678T631 457H519Q519 617 478 678T384 740Q343 740 310 717T254 655T223 563T214 420Q214 373 218 336T229 272T254 213T288 164Q291 209 304 243T340 297T393 329T460 340Q497 340 529 327T584 291T620 237T634 168Q634 131 621 98T585 42T526 4T448 -10Q364 -10 298 22T186 111T116 247T92 420Q92 507 106 583T153 715T239 804T369 836Q417 836 452 817T513 773T554 717T578 665Q585 688 600 717T640 773T700 817T782 836Q856 836 908 804T994 716T1042 585T1057 422Q1057 376 1052 331T1041 248T1022 165T1003 104H1074Q1150 104 1200 147T1250 273ZM461 246Q429 245 406 222T383 167Q383 135 406 112T461 90Q493 90 515 112T538 167Q538 183 532 197T515 222T491 239T461 246Z" horiz-adv-x="1493" unicode="๗"/>
			<glyph d="M953 1163H1071Q1079 1149 1084 1127T1090 1077Q1090 1020 1066 976T996 894T881 828T720 779Q661 765 603 749T493 713T391 665T299 587T238 484T220 362Q220 264 273 198T411 124Q418 171 430 210T460 278T506 324T579 341Q616 341 650 322T717 276T779 217T836 157T889 111T939 93Q954 93 969 98T1000 116T1033 158T1059 235Q1048 231 1033 228T1003 225Q966 225 934 238T879 275T843 330T830 398Q830 435 843 467T878 522T933 558T1002 572Q1039 572 1071 559T1126 521T1163 462T1177 384Q1177 297 1160 224T1111 100T1036 20T940 -8Q897 -8 859 10T789 55T728 115T673 174T624 220T579 238Q555 238 540 216T516 159T501 81T492 -5Q399 -5 326 22T203 97T126 212T100 360Q100 479 140 564T255 709T433 808T664 876Q810 908 890 956T970 1075Q970 1097 965 1121T953 1163ZM1003 476Q987 476 972 470T947 453T930 429T924 399Q924 367 947 344T1003 321Q1035 321 1057 344T1080 399Q1080 431 1057 453T1003 476Z" horiz-adv-x="1287" unicode="๘"/>
			<glyph d="M1154 1055H1258Q1258 1012 1251 972T1231 879T1201 779T1161 695T1108 637T1042 616Q1018 616 993 628T945 658T901 698T861 738T828 769T803 781Q788 781 774 761T750 713T733 646T722 571L963 0H832L626 509Q608 556 586 597T541 670T486 720T420 739Q364 739 325 707T262 629T228 526T218 395Q221 304 237 254T282 164Q285 210 298 243T334 297T387 329T454 340Q491 340 523 327T578 291T614 237T628 168Q628 131 615 98T579 42T520 4T442 -10Q358 -10 294 19T187 101T120 229T96 393Q96 494 118 575T182 714T285 803T430 834Q475 834 512 819T578 783T629 734T664 684Q672 723 682 761T709 829T748 878T803 897Q823 897 844 885T886 854T929 814T971 774T1009 744T1042 732Q1070 732 1086 757T1118 826T1144 929T1154 1055ZM455 246Q423 245 400 222T377 167Q377 135 400 112T455 90Q487 90 509 112T532 167Q532 183 526 197T509 222T485 239T455 246Z" horiz-adv-x="1268" unicode="๙"/>
			<glyph d="M1028 1024H1148V0H1028ZM737 1024H859V0H739V803H735Q706 748 663 696T567 603T450 539T309 515Q185 515 124 572T63 732Q63 788 82 829T131 896T200 934T278 947Q332 947 374 930V819Q354 829 331 835T282 842Q233 842 202 811T172 732Q172 677 209 643T320 610Q403 610 471 646T589 738T678 866T737 1024Z" horiz-adv-x="1324" unicode="๚"/>
			<glyph d="M469 907Q523 907 580 893T682 851V720Q637 758 581 780T471 802Q401 802 342 768T258 683T219 571T206 449Q206 389 214 331T252 218T334 131T452 100Q527 100 582 145T677 281T739 463T780 660L944 341L1055 589L1188 329L1327 589Q1361 472 1410 417T1522 362Q1584 362 1626 403T1682 528H1778Q1752 403 1688 337T1524 272Q1448 272 1397 315T1314 412L1179 161L1055 409L944 161L816 407Q797 338 767 258T696 124T593 32T455 -4Q349 -4 281 35T173 138T114 284T96 451Q96 545 118 628T184 773T296 871T469 907Z" horiz-adv-x="1823" unicode="๛"/>
			<glyph d="M285 1042Q398 1042 471 914Q751 1042 948 1042Q1165 1042 1295 909Q1418 782 1418 579Q1418 426 1356 272Q1314 168 1207 -11L1095 37Q1297 330 1297 579Q1297 740 1212 836Q1129 937 948 944Q778 944 511 824Q571 651 571 497Q571 347 516 188Q447 -9 311 -9Q237 -9 202 27T167 119Q167 168 203 209T314 250Q356 250 402 227Q450 331 450 495Q450 649 408 783Q347 757 291 757Q216 757 172 796T128 899Q128 962 168 1002T285 1042ZM285 955Q230 955 230 903Q230 882 246 866T285 850Q327 850 375 875Q340 955 285 955ZM306 165Q250 165 250 114Q250 63 306 63Q362 63 362 114Q362 134 347 149T306 165Z" horiz-adv-x="1524" unicode="ກ"/>
			<glyph d="M715 1042Q930 1042 1086 982Q1296 900 1296 732Q1296 585 1072 510Q970 472 691 410Q439 355 376 334Q226 282 226 200Q225 135 275 105Q309 86 392 86Q483 86 690 149T996 212Q1192 212 1306 27L1222 -27Q1125 114 998 114Q909 114 707 51T377 -12Q105 -12 105 200Q105 344 332 416Q421 444 701 506Q933 556 1035 598Q1175 655 1175 734Q1175 843 1019 904Q904 944 715 944Q430 944 321 811Q397 805 436 766T475 674Q475 618 435 578T335 538Q253 538 205 603Q175 648 175 715Q175 877 369 970Q526 1042 715 1042ZM326 725Q271 725 271 674Q271 624 326 624Q383 624 383 674Q383 725 326 725Z" horiz-adv-x="1390" unicode="ຂ"/>
			<glyph d="M689 1042Q955 1042 1127 924Q1317 793 1317 561Q1317 319 1105 -9L992 35Q1196 349 1196 555Q1196 729 1056 834Q929 944 683 944Q502 944 364 866Q228 782 228 667Q228 613 252 568Q353 651 460 651Q520 651 584 622Q658 579 658 501Q658 424 580 380Q515 348 451 348Q342 348 255 402Q228 346 228 299Q228 159 347 109Q344 192 390 227T489 263Q549 263 592 223T636 127Q636 73 594 32T479 -9Q134 -9 116 297Q116 392 167 476Q107 540 107 661Q107 845 300 953Q463 1042 689 1042ZM464 549Q382 549 317 491Q366 452 451 452Q554 452 554 501Q554 549 464 549ZM487 178Q432 178 432 127Q432 76 487 76Q543 76 543 127Q543 178 487 178Z" horiz-adv-x="1424" unicode="ຄ"/>
			<glyph d="M468 1042Q756 1042 859 793Q924 638 924 316Q924 -6 833 -154Q711 -355 385 -355Q275 -355 182 -329L212 -236Q305 -256 385 -256Q652 -256 741 -82Q804 58 804 316Q804 585 755 721Q675 944 474 944Q370 944 295 906T197 792Q296 792 340 751T384 655Q384 600 339 560T234 520Q150 520 106 577Q67 629 67 710Q67 867 182 957Q292 1042 468 1042ZM234 707Q180 707 180 655Q180 605 234 605Q292 605 292 655Q292 707 234 707Z" horiz-adv-x="1030" unicode="ງ"/>
			<glyph d="M694 1042Q943 1042 1094 913Q1251 780 1251 553Q1251 199 852 -33L785 35Q845 101 867 142Q906 208 906 315Q906 419 869 471Q825 531 741 531Q639 531 605 438Q704 438 748 402T792 302Q792 246 748 206T643 166Q556 166 511 225Q473 279 473 357Q473 475 552 552T751 630Q876 630 956 535Q1021 449 1021 325Q1021 279 1010 231Q1130 358 1130 559Q1130 733 1010 838T694 944Q349 944 189 606L73 643Q256 1042 694 1042ZM643 353Q614 353 601 337T588 302Q588 281 601 266T643 251Q700 251 700 302Q700 353 643 353Z" horiz-adv-x="1356" unicode="ຈ"/>
			<glyph d="M625 1042Q890 1042 1050 926Q1227 799 1227 563Q1227 332 1047 167Q1144 95 1144 -54V-176Q1144 -250 1236 -250V-349Q1023 -349 1023 -137V-51Q1023 46 959 94Q760 -18 527 -18Q364 -18 272 20Q154 71 154 144Q154 216 273 272Q367 314 529 314Q739 314 957 224Q1106 374 1106 565Q1106 750 960 852Q816 944 625 944Q372 944 252 799Q352 799 396 758T441 663Q441 607 396 567T291 527Q204 527 158 581Q116 632 116 711Q116 864 288 961Q444 1042 625 1042ZM291 713Q236 713 236 663Q236 612 291 612Q348 612 348 663Q348 713 291 713ZM527 218Q417 218 361 205Q274 182 274 142Q274 108 365 90Q425 78 527 78Q720 78 857 152Q724 218 527 218Z" horiz-adv-x="1333" unicode="ຊ"/>
			<glyph d="M479 1041Q552 1041 594 1000T636 906Q636 850 592 809T489 769Q436 769 390 805T347 923Q228 874 228 734Q228 687 255 631Q342 685 451 685Q515 685 580 653Q658 608 658 531Q658 453 584 411Q520 381 460 381Q353 381 252 465Q228 420 228 365Q228 245 364 161Q493 89 683 89Q929 89 1056 199Q1196 303 1196 477Q1196 684 992 998L1105 1041Q1317 713 1317 472Q1317 239 1127 108Q955 -10 689 -10Q454 -10 300 75Q107 182 107 372Q107 492 167 556Q116 640 116 735Q116 869 216 955T479 1041ZM451 580Q366 580 317 541Q382 483 464 483Q554 483 554 531Q554 580 451 580ZM487 956Q432 956 432 906Q432 854 487 854Q543 854 543 906Q543 956 487 956Z" horiz-adv-x="1398" unicode="ຍ"/>
			<glyph d="M706 1042Q971 1042 1133 918Q1308 784 1308 545Q1308 308 1095 -9L982 37Q1187 337 1187 545Q1187 728 1041 846Q902 944 706 944Q512 944 388 860Q228 741 228 545Q228 307 393 161Q421 263 537 263Q597 263 640 223T684 127Q684 74 639 32T537 -9Q338 -9 214 180Q107 343 107 543Q107 783 276 916Q438 1042 706 1042ZM535 178Q513 178 496 162T479 127Q479 76 535 76Q591 76 591 127Q591 178 535 178Z" horiz-adv-x="1414" unicode="ດ"/>
			<glyph d="M549 1042Q640 1042 714 998T826 884Q858 953 944 999Q1025 1042 1109 1042Q1321 1042 1434 896Q1533 768 1533 569Q1533 309 1321 -11L1204 35Q1412 342 1412 567Q1412 711 1338 830Q1261 944 1102 944Q1025 944 964 894T879 726H774Q756 844 695 894T549 944Q394 944 304 828Q228 714 228 569Q228 469 255 371Q290 252 389 161Q414 263 527 263Q588 263 631 223T674 127Q674 74 629 32T527 -9Q331 -9 209 198Q107 371 107 567Q107 769 216 899Q336 1042 549 1042ZM525 178Q503 178 486 162T469 127Q469 76 525 76Q582 76 582 127Q582 178 525 178Z" horiz-adv-x="1640" unicode="ຕ"/>
			<glyph d="M265 1042Q390 1042 469 905Q760 1042 928 1042Q1153 1042 1277 920Q1398 800 1398 586V-355H1277V586Q1277 723 1199 844Q1117 932 928 932Q777 932 508 802Q535 724 532 643Q532 578 508 466T485 279Q485 265 489 255Q516 263 549 263Q610 263 653 223T697 127Q697 68 652 29T543 -9Q451 -9 399 90Q364 164 364 281Q364 355 386 466T409 643Q409 699 396 762Q326 733 272 733Q189 733 138 772T88 888Q88 958 138 1000T265 1042ZM260 942Q191 942 191 888Q191 861 207 844T265 828Q313 828 363 859Q324 942 260 942ZM547 178Q494 174 492 127Q494 80 547 76Q604 76 605 127Q602 178 547 178Z" horiz-adv-x="1525" unicode="ຖ"/>
			<glyph d="M257 1042Q329 1042 370 1001T411 893Q411 839 353 718Q269 543 269 412Q269 86 518 86Q738 86 738 386Q738 437 731 528T725 672Q725 822 804 925Q900 1042 1057 1042Q1257 1042 1349 891Q1426 765 1426 565Q1426 323 1269 -12L1152 23Q1305 347 1305 565Q1305 944 1055 944Q955 944 898 865Q846 794 846 656Q846 607 852 519T859 382Q859 215 787 107Q706 -12 513 -12Q319 -12 226 118Q148 227 148 396Q148 578 254 765Q176 768 142 806T108 899Q108 956 152 999T257 1042ZM257 950Q201 950 201 899Q201 848 257 848Q313 848 313 899Q313 919 296 934T257 950Z" horiz-adv-x="1532" unicode="ທ"/>
			<glyph d="M255 1042Q386 1042 456 860Q509 732 509 552Q509 388 431 218Q683 86 887 86Q1061 86 1152 200Q1236 313 1236 461Q1236 597 1173 734Q1133 826 1024 987L1139 1042Q1262 836 1290 772Q1356 624 1356 467Q1356 256 1238 125Q1110 -12 887 -12Q645 -12 380 121Q335 43 277 -8L187 77Q289 176 340 308Q388 433 388 553Q388 703 346 799Q300 770 253 770Q193 770 150 810T107 907Q107 961 149 1001T255 1042ZM255 957Q199 957 199 907Q199 855 255 855Q277 855 294 870T311 907Q311 927 294 942T255 957Z" horiz-adv-x="1463" unicode="ນ"/>
			<glyph d="M255 1042Q324 1042 365 1001T406 893Q406 823 354 725Q269 552 269 439Q269 268 399 177Q545 86 747 86Q968 86 1103 196Q1228 303 1228 475Q1228 701 1030 1000L1137 1042Q1349 723 1349 475Q1349 237 1174 107Q1014 -12 747 -12Q480 -12 325 90Q148 206 148 432Q148 575 252 762Q180 768 144 806T108 899Q108 956 150 999T255 1042ZM257 950Q201 950 201 899Q201 848 257 848Q313 848 313 899Q313 919 296 934T257 950Z" horiz-adv-x="1455" unicode="ບ"/>
			<glyph d="M1294 1228V1129Q1205 1129 1205 1017Q1205 922 1277 741T1349 467Q1349 230 1172 103Q1016 -12 747 -12Q479 -12 325 87Q148 202 148 436Q148 569 252 762Q180 768 144 806T108 899Q108 953 150 997T255 1042Q324 1042 365 1001T406 893Q406 830 365 743Q269 558 269 435Q269 241 441 154Q558 86 747 86Q974 86 1105 200Q1228 309 1228 467Q1228 552 1154 733T1081 1018Q1081 1228 1294 1228ZM257 950Q201 950 201 899Q201 848 257 848Q313 848 313 899Q313 919 296 934T257 950Z" horiz-adv-x="1455" unicode="ປ"/>
			<glyph d="M1376 1048L1478 1030Q1468 985 1424 885Q1533 695 1533 498Q1533 283 1411 141Q1279 -12 1071 -12Q923 -12 820 80Q714 -12 568 -12Q354 -12 226 140Q107 279 107 482Q107 676 209 843Q341 1042 510 1042Q585 1042 629 1001T674 907Q674 851 631 810T527 770Q421 770 385 867Q293 791 256 670Q228 575 228 480Q228 326 317 206Q420 86 568 86Q650 86 733 142Q646 232 646 336Q646 412 695 468T815 525Q891 525 944 467Q990 412 990 334Q990 232 901 141Q978 86 1071 86Q1235 86 1333 226Q1412 342 1412 491Q1412 659 1348 798Q1284 736 1197 736Q1124 736 1073 779T1022 893Q1022 959 1071 1000T1196 1042Q1279 1042 1353 970Q1368 1015 1376 1048ZM1192 940Q1164 940 1145 926T1127 889Q1127 830 1198 830Q1259 830 1302 889Q1254 940 1192 940ZM525 957Q503 957 486 942T469 907Q469 886 486 870T525 855Q582 855 582 907Q582 957 525 957ZM820 422Q783 422 767 392Q754 366 754 330Q754 260 820 198Q882 256 882 323Q882 422 820 422Z" horiz-adv-x="1640" unicode="ຜ"/>
			<glyph d="M1478 1228V1129Q1447 1129 1423 1112Q1396 1095 1396 1032Q1396 943 1464 774T1533 485Q1533 287 1412 144Q1281 -12 1071 -12Q923 -12 820 80Q714 -12 568 -12Q354 -12 226 140Q107 279 107 482Q107 675 209 843Q331 1042 521 1042Q585 1042 629 1001T674 907Q674 851 631 810T527 770Q421 770 385 866Q291 789 256 670Q228 575 228 480Q228 346 295 241Q400 86 568 86Q650 86 733 142Q646 231 646 344Q646 411 694 467T815 525Q890 523 938 474Q989 417 990 344Q990 227 901 141Q978 86 1071 86Q1225 86 1330 220Q1412 343 1412 485Q1412 604 1343 772T1275 1033Q1275 1228 1478 1228ZM525 957Q503 957 486 942T469 907Q469 886 486 870T525 855Q582 855 582 907Q582 957 525 957ZM820 422Q783 422 768 395Q754 367 754 334Q753 260 820 198Q861 239 871 268T882 332Q879 421 820 422Z" horiz-adv-x="1640" unicode="ຝ"/>
			<glyph d="M248 1042Q321 1042 360 1001T399 893Q399 829 333 687T267 448Q267 334 337 223Q433 86 608 86Q694 86 774 143Q685 232 685 335Q685 414 734 469T855 525Q932 525 982 470Q1029 417 1029 335Q1029 228 941 142Q1018 86 1111 86Q1272 86 1363 202Q1452 316 1452 484Q1452 602 1388 754Q1333 888 1251 1001L1360 1042Q1572 723 1572 467Q1572 270 1452 134Q1322 -12 1111 -12Q962 -12 859 80Q753 -12 608 -12Q392 -12 265 122Q146 249 146 450Q146 585 248 774Q177 774 139 813T101 907Q101 960 145 1001T248 1042ZM859 422Q799 424 794 333Q794 258 860 198Q889 224 906 257T924 329Q918 422 859 422ZM250 957Q193 957 193 907Q193 855 250 855Q272 855 288 870T305 907Q305 927 288 942T250 957Z" horiz-adv-x="1679" unicode="ພ"/>
			<glyph d="M1518 1228V1129Q1486 1129 1462 1112Q1435 1095 1435 1032Q1435 943 1503 764T1572 476Q1572 275 1455 138Q1321 -12 1111 -12Q962 -12 859 80Q753 -12 608 -12Q392 -12 265 122Q146 249 146 450Q146 581 246 774Q177 774 139 813T101 907Q101 960 145 1001T248 1042Q321 1042 360 1001T400 893Q400 829 333 687T267 448Q267 325 337 223Q433 86 608 86Q689 86 774 143Q685 229 685 335Q685 407 731 466T854 525Q945 525 993 457Q1029 409 1029 335Q1029 230 941 141Q1018 86 1111 86Q1272 86 1367 207Q1452 327 1452 475Q1452 591 1383 765T1314 1033Q1314 1228 1518 1228ZM859 422Q799 422 793 334Q793 259 861 198Q897 232 910 266T924 331Q916 422 859 422ZM250 957Q193 957 193 907Q193 855 250 855Q272 855 288 870T305 907Q305 927 288 942T250 957Z" horiz-adv-x="1679" unicode="ຟ"/>
			<glyph d="M448 1040Q570 750 570 534Q570 381 511 208Q788 86 928 86Q1123 86 1218 200Q1297 305 1297 452Q1297 702 1096 993L1208 1040Q1312 862 1352 766Q1418 608 1418 458Q1418 256 1293 125Q1162 -12 948 -12Q753 -12 471 117Q398 -12 285 -12Q212 -12 170 29T128 133Q128 192 169 232T291 273Q342 273 409 247Q449 394 449 536Q448 765 336 993ZM284 182Q262 182 245 164T229 128Q229 75 284 75Q339 75 376 154Q329 182 284 182Z" horiz-adv-x="1524" unicode="ມ"/>
			<glyph d="M1262 1228V1129Q1173 1129 1173 1017Q1173 922 1245 763T1317 469Q1317 235 1137 106Q972 -12 708 -12Q472 -12 312 65Q107 169 107 364Q107 481 167 555Q116 639 116 724Q116 865 204 953T472 1042Q535 1042 576 1017Q636 973 636 905Q636 847 591 808T487 769Q342 782 347 923Q228 873 228 734Q228 679 254 631Q342 685 450 685Q545 685 613 630Q658 585 658 533Q658 471 611 428Q549 381 460 381Q349 381 252 465Q228 428 228 372Q228 217 396 141Q512 89 702 89Q889 89 1020 171Q1196 295 1196 470Q1196 587 1122 750T1049 1018Q1049 1228 1262 1228ZM487 956Q432 956 432 905Q432 854 487 854Q543 854 543 905Q543 956 487 956ZM448 580Q369 580 317 541Q383 483 464 483Q494 483 522 491Q554 505 554 530Q551 583 448 580Z" horiz-adv-x="1398" unicode="ຢ"/>
			<glyph d="M631 1042Q828 1042 982 985Q1168 914 1242 772L1129 735Q995 944 629 944Q520 944 413 920Q228 872 228 772Q228 694 424 655Q488 642 660 616Q782 598 911 577Q1058 553 1148 506Q1264 444 1264 327Q1264 155 1060 61Q898 -12 684 -12Q489 -12 319 64Q117 161 117 319Q117 394 160 446Q208 503 290 503Q350 503 395 463T440 367Q440 237 254 237Q377 86 675 86Q844 86 991 146Q1143 220 1143 314Q1143 430 920 475Q867 485 662 517Q417 549 313 577Q107 631 107 772Q107 909 300 985Q464 1042 631 1042ZM290 418Q235 418 235 367Q235 316 290 316Q347 316 347 367Q347 418 290 418Z" horiz-adv-x="1370" unicode="ຣ"/>
			<glyph d="M713 1042Q966 1042 1118 906T1270 539Q1270 332 1181 178Q1070 -12 863 -12Q756 -12 598 110Q449 225 362 230Q421 192 421 123Q421 67 377 27T272 -12Q191 -12 149 34T107 136Q107 222 172 276Q243 328 354 328Q477 328 658 191Q798 86 877 86Q1011 86 1095 268Q1149 401 1149 541Q1149 725 1025 834T713 944Q357 944 200 647L90 682Q280 1042 713 1042ZM272 175Q217 175 217 123Q217 73 272 73Q328 73 328 123Q328 175 272 175Z" horiz-adv-x="1377" unicode="ລ"/>
			<glyph d="M704 1042Q958 1042 1113 911Q1270 777 1270 548Q1270 309 1104 148T679 -12Q471 -12 300 73Q113 179 115 325Q113 384 152 438Q199 495 285 495Q347 495 391 454T435 358Q435 306 393 265T275 223Q412 86 663 86Q901 86 1044 243Q1149 370 1149 550Q1149 718 1026 831T704 944Q363 944 204 646L90 682Q268 1042 704 1042ZM285 410Q230 410 230 358Q230 308 285 308Q342 308 342 358Q342 410 285 410Z" horiz-adv-x="1377" unicode="ວ"/>
			<glyph d="M563 1042Q914 1042 1102 876Q1183 961 1212 1042H1323Q1264 881 1173 812Q1285 665 1285 484Q1285 279 1196 147Q1089 -12 878 -12Q781 -12 604 115Q451 225 401 225Q456 192 456 123Q456 67 411 27T306 -12Q230 -12 182 40Q140 88 140 150Q140 225 201 278Q262 326 370 326Q444 326 528 282Q569 260 659 192Q798 86 878 86Q1027 86 1104 216Q1164 335 1164 486Q1164 619 1082 738Q1004 683 858 648Q726 616 566 616Q399 616 287 649Q114 701 114 822Q114 946 283 1003Q400 1042 563 1042ZM562 945Q225 945 225 826Q225 708 564 708Q828 708 1020 816Q850 945 562 945ZM306 175Q284 175 268 159T252 123Q252 103 268 88T306 73Q364 73 364 123Q364 175 306 175Z" horiz-adv-x="1392" unicode="ສ"/>
			<glyph d="M255 1042Q328 1042 369 1001T411 893Q411 844 361 735Q283 546 283 415Q283 289 335 207Q415 86 563 86Q703 86 777 203Q831 302 831 453Q831 631 780 805Q714 765 660 765Q593 765 552 800T511 899Q511 965 554 1003T671 1042Q771 1042 835 944Q970 1042 1091 1042Q1440 1042 1440 561Q1440 310 1288 -12L1168 25Q1319 318 1319 561Q1319 706 1287 803Q1232 944 1080 944Q1004 944 872 861Q952 661 952 453Q952 253 864 129Q754 -12 557 -12Q359 -12 254 115Q162 229 162 417Q162 591 252 759Q176 765 142 805T108 899Q108 957 150 999T255 1042ZM659 950Q603 950 603 899Q603 848 659 848Q694 848 747 886Q714 950 659 950ZM257 950Q201 950 201 899Q201 848 257 848Q313 848 313 899Q313 919 296 934T257 950Z" horiz-adv-x="1547" unicode="ຫ"/>
			<glyph d="M585 1042Q850 1042 1045 909Q1270 757 1270 503Q1270 250 1100 115Q938 -12 651 -12Q444 -12 292 67Q116 162 116 340Q116 420 161 474Q211 530 291 530Q352 530 396 490T441 394Q441 338 401 301Q360 261 241 258Q332 93 647 86Q1149 86 1149 505Q1149 616 1092 710Q1003 640 875 598Q724 546 582 546Q420 546 296 594Q130 660 130 790Q130 921 297 989Q425 1042 585 1042ZM587 949Q500 949 398 924Q245 885 245 794Q245 710 376 666Q489 634 589 634Q699 634 823 676T1027 789Q855 949 587 949ZM291 445Q236 445 236 394Q236 343 291 343Q348 343 348 394Q348 445 291 445Z" horiz-adv-x="1377" unicode="ອ"/>
			<glyph d="M1186 1057L1278 989Q1180 818 998 818Q900 818 692 881T394 944Q324 944 277 917Q228 884 228 836Q228 732 427 684Q487 671 687 624Q956 562 1053 526Q1268 445 1268 298Q1268 130 1058 48Q902 -12 687 -12Q493 -12 341 55Q147 141 147 301Q147 382 193 435Q242 491 327 491Q389 491 432 451T476 356Q476 302 434 259T293 219Q416 86 687 86Q837 86 951 114Q1147 162 1147 296Q1147 386 950 454Q876 479 693 520Q407 583 314 616Q107 691 107 829Q107 1042 396 1042Q507 1042 709 979T1000 916Q1097 916 1186 1057ZM327 406Q272 406 272 356Q272 305 327 305Q384 305 384 356Q384 406 327 406Z" horiz-adv-x="1390" unicode="ຮ"/>
			<glyph d="M746 990H869V0H748V691Q702 613 592 561Q492 515 372 515Q236 515 145 577Q59 644 59 757Q59 814 104 856T212 899Q276 899 322 857T368 757Q368 663 263 623Q309 610 372 610Q546 610 652 732Q736 837 746 990ZM212 803Q163 803 163 757Q163 710 212 710Q263 710 263 757Q263 803 212 803Z" horiz-adv-x="1017" unicode="ຯ"/>
			<glyph d="M270 519Q331 519 374 480T417 380Q416 314 352 271Q370 267 387 267Q516 267 592 345Q647 402 666 484H758Q732 346 632 262Q529 175 386 175Q279 175 204 227Q124 285 124 380Q124 441 167 480T270 519ZM270 434Q218 434 218 386Q218 337 270 337Q323 337 323 386Q323 434 270 434ZM270 1033Q331 1033 374 994T417 894Q416 828 352 786Q370 781 387 781Q516 781 592 860Q647 916 666 999H758Q732 860 632 776Q529 689 386 689Q279 689 204 742Q124 799 124 894Q124 955 167 994T270 1033ZM270 948Q218 948 218 900Q218 852 270 852Q323 852 323 900Q323 948 270 948Z" horiz-adv-x="850" unicode="ະ"/>
			<glyph d="M-200 1508Q-147 1508 -112 1474T-77 1386Q-77 1355 -96 1331Q-65 1323 -35 1323Q55 1323 123 1364Q201 1409 218 1490H306Q281 1368 185 1303Q96 1242 -35 1242Q-324 1242 -324 1386Q-324 1439 -288 1473T-200 1508ZM-200 1432Q-241 1432 -241 1391Q-241 1349 -200 1349Q-159 1349 -159 1391Q-159 1432 -200 1432Z" unicode="ັ"/>
			<glyph d="M405 1042Q593 1042 713 922Q829 805 829 630Q829 479 767 299Q709 130 617 -9L504 36Q708 324 708 632Q708 744 640 837Q552 944 403 944Q306 944 250 917Q309 909 345 872T382 786Q382 730 337 690T232 650Q150 652 106 705Q67 754 67 825Q67 924 183 995Q270 1042 405 1042ZM232 837Q178 837 178 786Q178 735 232 735Q290 735 290 786Q290 837 232 837Z" horiz-adv-x="936" unicode="າ"/>
			<glyph d="M150 1345Q207 1345 248 1306T289 1215Q289 1163 247 1125T150 1087Q92 1087 51 1124T10 1215Q10 1268 51 1306T150 1345ZM150 1276Q84 1276 84 1215Q84 1156 150 1156Q214 1156 214 1215Q214 1276 150 1276ZM405 1042Q593 1042 713 922Q829 805 829 630Q829 479 767 299Q709 130 617 -9L504 36Q708 324 708 632Q708 744 640 837Q552 944 403 944Q306 944 250 917Q309 909 345 872T382 786Q382 730 337 690T232 650Q150 652 106 705Q67 754 67 825Q67 924 183 995Q270 1042 405 1042ZM232 837Q178 837 178 786Q178 735 232 735Q290 735 290 786Q290 837 232 837Z" horiz-adv-x="936" unicode="ຳ"/>
			<glyph d="M0 1533Q193 1533 279 1500Q368 1464 368 1382Q368 1291 263 1260Q204 1242 84 1242V1330H121Q274 1330 274 1382Q274 1449 36 1449H-36Q-273 1449 -273 1382Q-273 1330 -120 1330H-83V1242Q-203 1242 -263 1260Q-367 1291 -367 1382Q-367 1464 -278 1500Q-192 1533 0 1533Z" unicode="ິ"/>
			<glyph d="M0 1533Q193 1533 279 1500Q368 1464 368 1382Q368 1360 344 1330H496V1242H84V1330H141Q274 1330 274 1382Q274 1449 36 1449H-36Q-273 1449 -273 1382Q-273 1330 -120 1330H-83V1242Q-215 1242 -265 1257Q-367 1286 -367 1382Q-367 1464 -278 1500Q-192 1533 0 1533Z" unicode="ີ"/>
			<glyph d="M0 1533Q193 1533 279 1500Q368 1464 368 1382Q368 1291 263 1260Q204 1242 84 1242V1330H121Q274 1330 274 1382Q274 1449 36 1449H-36Q-273 1449 -273 1382Q-273 1330 -120 1330H-83V1242Q-203 1242 -263 1260Q-367 1291 -367 1382Q-367 1464 -278 1500Q-192 1533 0 1533ZM0 1436Q54 1436 54 1379Q54 1326 0 1326Q-54 1326 -54 1382Q-54 1436 0 1436Z" unicode="ຶ"/>
			<glyph d="M0 1533Q193 1533 279 1500Q368 1464 368 1382Q368 1360 344 1330H496V1242H84V1330H141Q274 1330 274 1382Q274 1449 36 1449H-36Q-273 1449 -273 1382Q-273 1330 -120 1330H-83V1242Q-215 1242 -265 1257Q-367 1286 -367 1382Q-367 1464 -278 1500Q-192 1533 0 1533ZM0 1437Q54 1437 54 1380Q54 1326 0 1326Q-54 1326 -54 1383Q-54 1437 0 1437Z" unicode="ື"/>
			<glyph d="M-1 -18Q44 -18 71 -46T99 -120Q99 -189 17 -254L-38 -225Q-25 -215 -4 -193Q-44 -193 -71 -169T-99 -106Q-99 -67 -70 -42T-1 -18ZM-1 -77Q-30 -77 -30 -107Q-30 -137 -1 -137Q29 -137 29 -107Q29 -77 -1 -77Z" unicode="ຸ"/>
			<glyph d="M-90 -18Q-50 -18 -20 -45T10 -113V-132Q10 -187 49 -187Q95 -187 95 -132V-51H189V-136Q189 -263 49 -263Q16 -263 -17 -242Q-52 -220 -60 -192Q-73 -199 -90 -199Q-131 -199 -159 -174T-187 -109Q-187 -70 -158 -44T-90 -18ZM-90 -80Q-122 -80 -122 -109Q-122 -141 -90 -141Q-59 -141 -59 -109Q-59 -80 -90 -80Z" unicode="ູ"/>
			<glyph d="M-35 1508Q96 1508 185 1447Q281 1382 306 1260H218Q201 1340 123 1385Q55 1426 -35 1426Q-65 1426 -96 1418Q-77 1394 -77 1363Q-77 1310 -112 1276T-200 1242Q-253 1242 -288 1276T-324 1363Q-324 1508 -35 1508ZM-200 1401Q-241 1401 -241 1359Q-241 1318 -200 1318Q-159 1318 -159 1359Q-159 1401 -200 1401Z" unicode="ົ"/>
			<glyph d="M-133 -18Q-93 -18 -17 -39T90 -61Q153 -61 222 -18L255 -79Q184 -133 87 -133Q57 -133 3 -116Q-64 -96 -80 -93Q-75 -106 -75 -117Q-75 -153 -100 -175T-163 -197Q-202 -197 -228 -173T-254 -112Q-254 -18 -133 -18ZM-163 -82Q-192 -82 -192 -110Q-192 -137 -163 -137Q-136 -137 -136 -110Q-136 -82 -163 -82Z" unicode="ຼ"/>
			<glyph d="M284 1042Q418 1009 501 1009Q633 1009 753 1042L781 950Q647 911 474 911Q801 596 801 231Q801 -12 697 -167Q571 -355 324 -355Q198 -355 102 -285Q0 -212 0 -108Q0 -35 51 19T180 74Q242 74 286 34T330 -63Q330 -117 291 -155T163 -193Q227 -256 332 -256Q533 -256 626 -66Q680 47 680 225Q680 422 561 622Q446 805 256 962ZM180 -12Q158 -12 142 -27T126 -63Q126 -83 142 -98T180 -114Q238 -114 238 -63Q238 -12 180 -12Z" horiz-adv-x="906" unicode="ຽ"/>
			<glyph d="M488 1023Q643 1023 759 883L671 813Q593 924 476 924Q317 924 236 752Q188 651 188 513Q188 410 235 315Q298 192 423 140Q449 263 570 263Q631 263 674 223T718 127Q718 74 673 32T570 -9Q338 -9 198 149Q67 295 67 513Q67 730 156 862Q265 1023 488 1023ZM568 178Q514 178 514 127Q514 76 568 76Q625 76 625 127Q625 178 568 178Z" horiz-adv-x="826" unicode="ເ"/>
			<glyph d="M488 1023Q643 1023 759 883L671 813Q593 924 476 924Q317 924 236 752Q188 651 188 513Q188 410 235 315Q298 192 423 140Q449 263 570 263Q631 263 674 223T718 127Q718 74 673 32T570 -9Q338 -9 198 149Q67 295 67 513Q67 730 156 862Q265 1023 488 1023ZM568 178Q514 178 514 127Q514 76 568 76Q625 76 625 127Q625 178 568 178ZM1247 1023Q1402 1023 1518 883L1430 813Q1352 924 1235 924Q1076 924 995 752Q947 651 947 513Q947 410 994 315Q1057 192 1182 140Q1208 263 1329 263Q1390 263 1433 223T1477 127Q1477 74 1432 32T1329 -9Q1097 -9 957 149Q826 295 826 513Q826 730 915 862Q1024 1023 1247 1023ZM1327 178Q1273 178 1273 127Q1273 76 1327 76Q1384 76 1384 127Q1384 178 1327 178Z" horiz-adv-x="1585" unicode="ແ"/>
			<glyph d="M308 1794Q419 1794 512 1724Q559 1688 661 1573L806 1409L710 1337L550 1528Q413 1696 308 1696Q251 1696 213 1664T176 1577Q176 1478 385 1276Q617 1053 617 979Q617 930 477 725Q298 458 298 338Q298 212 396 149Q423 263 534 263Q594 263 638 223T682 127Q682 74 636 32T534 -9Q370 -9 271 94Q177 192 177 338Q177 484 369 773Q487 955 487 983Q487 1020 309 1207Q154 1367 129 1402Q55 1491 55 1563Q55 1668 125 1731T308 1794ZM532 178Q477 178 477 127Q477 76 532 76Q588 76 588 127Q588 178 532 178Z" horiz-adv-x="846" unicode="ໂ"/>
			<glyph d="M439 1860Q626 1860 736 1753Q844 1647 844 1473Q844 1323 624 911Q512 692 476 622Q386 438 386 338Q386 225 486 158Q518 263 627 263Q687 263 731 223T775 127Q775 74 729 32T627 -9Q465 -9 363 95Q265 195 265 347Q265 427 348 613Q417 760 492 908Q569 1061 641 1213Q720 1378 720 1477Q720 1597 642 1683Q565 1762 439 1762Q321 1762 243 1692Q155 1609 155 1487Q155 1403 210 1335Q273 1260 408 1238L390 1138Q227 1153 130 1245T34 1487Q34 1650 148 1755T439 1860ZM625 178Q570 178 570 127Q570 76 625 76Q683 76 683 127Q683 178 625 178Z" horiz-adv-x="876" unicode="ໃ"/>
			<glyph d="M190 1838L382 1493Q494 1281 494 1120Q494 1018 364 741Q320 645 278 549Q223 422 223 347Q223 232 318 159Q352 263 464 263Q524 263 568 223T612 127Q612 74 567 32T464 -9Q301 -9 200 95Q102 195 102 347Q102 457 233 742Q323 935 340 972Q373 1058 373 1128Q373 1258 287 1429Q215 1571 86 1793ZM462 178Q407 178 407 127Q407 76 462 76Q519 76 519 127Q519 178 462 178Z" horiz-adv-x="681" unicode="ໄ"/>
			<glyph d="M332 1042Q375 1042 451 1015T548 989Q573 989 648 1014T767 1040Q924 1040 981 876Q1017 775 1017 578V337Q1017 66 945 -101Q835 -355 548 -355Q397 -355 291 -293Q194 -237 107 -113L205 -56Q351 -256 540 -256Q757 -256 843 -41Q896 98 896 318V623Q888 944 763 944Q719 944 644 914T548 885Q525 885 449 914T334 944Q287 944 241 890Q204 843 199 759Q302 760 346 721T390 624Q390 569 345 528T240 488Q162 488 112 549Q67 604 67 679Q67 816 128 916Q200 1042 332 1042ZM240 675Q185 675 185 624Q185 573 240 573Q297 573 297 624Q297 675 240 675Z" horiz-adv-x="1122" unicode="ໆ"/>
			<glyph d="M1 1508Q68 1508 68 1443L42 1242H-35L-67 1443Q-67 1508 1 1508Z" unicode="່"/>
			<glyph d="M0 1542Q48 1542 80 1511T112 1433Q112 1368 35 1329Q263 1362 387 1484L439 1425Q259 1242 -101 1242V1319Q-58 1319 -23 1341Q-110 1354 -110 1440Q-110 1484 -77 1513T0 1542ZM0 1473Q-36 1473 -36 1437Q-36 1400 0 1400Q38 1400 38 1437Q38 1473 0 1473Z" unicode="້"/>
			<glyph d="M-112 1535Q-43 1535 -3 1475H4Q36 1535 119 1535Q184 1535 223 1498T262 1399Q262 1357 233 1330H347V1242H68V1330Q170 1330 170 1397Q170 1451 110 1451Q85 1451 65 1425Q47 1401 43 1375H-44Q-46 1451 -106 1451Q-166 1451 -166 1381Q-166 1360 -161 1351Q-146 1374 -110 1374Q-83 1374 -65 1354T-47 1307Q-47 1243 -132 1243Q-186 1243 -224 1290Q-259 1333 -259 1389Q-259 1453 -218 1494T-112 1535Z" unicode="໊"/>
			<glyph d="M-39 1493H38V1406H125V1329H38V1242H-39V1329H-126V1406H-39Z" unicode="໋"/>
			<glyph d="M323 1526L392 1473Q335 1425 214 1425Q115 1424 85 1414Q111 1390 111 1345Q111 1299 78 1270T0 1242Q-47 1242 -79 1272T-111 1349Q-111 1504 195 1504Q295 1504 323 1526ZM0 1386Q-37 1386 -37 1349Q-37 1312 0 1312Q37 1312 37 1349Q37 1386 0 1386Z" unicode="໌"/>
			<glyph d="M0 1463Q48 1463 79 1429T111 1348Q111 1302 78 1272T0 1242Q-47 1242 -78 1274T-110 1353Q-110 1397 -77 1430T0 1463ZM0 1389Q-36 1389 -36 1353Q-36 1315 0 1315Q37 1315 37 1353Q37 1389 0 1389Z" unicode="ໍ"/>
			<glyph d="M706 1042Q961 1042 1130 897Q1305 748 1305 514Q1305 283 1129 133Q958 -12 706 -12Q453 -12 282 133Q107 283 107 514Q107 748 281 897Q450 1042 706 1042ZM706 944Q503 944 367 823T231 512Q231 327 369 206T706 86Q904 86 1042 206T1180 512Q1180 702 1044 823T706 944Z" horiz-adv-x="1418" unicode="໐"/>
			<glyph d="M706 1042Q971 1042 1131 926Q1308 798 1308 561Q1308 260 973 -17L882 66Q1187 284 1187 561Q1187 758 1023 863Q889 944 706 944Q524 944 387 867Q228 768 228 561Q228 447 276 360Q361 218 503 218Q549 218 586 243Q519 273 519 354Q519 410 563 450T668 491Q735 491 782 444Q819 404 819 343Q819 255 725 184Q630 120 507 120Q322 120 208 259Q107 385 107 559Q107 801 279 927Q436 1042 706 1042ZM668 405Q612 405 612 354Q612 303 668 303Q724 303 724 354Q724 374 707 389T668 405Z" horiz-adv-x="1414" unicode="໑"/>
			<glyph d="M886 1422L1001 1386Q930 1206 841 1103Q772 1019 612 900Q429 760 373 701Q252 577 252 440Q252 294 367 192Q504 86 672 86Q768 86 823 116Q747 172 747 256Q747 313 793 352Q834 389 902 389Q976 389 1018 343Q1057 301 1057 227Q1057 127 930 54Q815 -12 657 -12Q439 -12 288 111Q132 239 132 436Q132 589 255 740Q338 840 511 973Q659 1087 735 1174Q834 1285 886 1422Z" horiz-adv-x="1182" unicode="໒"/>
			<glyph d="M651 1484Q709 1484 790 1455L1165 1318L1113 1232L712 1377Q688 1385 651 1385Q602 1385 572 1361T543 1297Q543 1238 629 1206Q671 1190 750 1163Q933 1103 993 1076Q1308 945 1308 571Q1308 360 1233 206Q1134 0 932 0Q743 0 545 198Q470 81 393 31Q333 -9 234 -9Q176 -9 131 32T86 127Q86 183 130 223T234 263Q338 263 371 159Q431 225 461 288Q363 414 309 544Q250 687 250 796Q250 891 303 954Q363 1023 466 1023Q706 1023 706 658Q706 530 606 299Q659 241 749 169Q854 98 926 98Q1087 98 1142 283Q1187 425 1187 577Q1187 909 894 1009Q772 1053 631 1100Q422 1166 422 1291Q422 1374 486 1429T651 1484ZM466 924Q370 924 370 798Q370 625 519 401Q588 536 588 687Q588 924 466 924ZM236 178Q179 178 179 127Q179 76 236 76Q291 76 291 127Q291 178 236 178Z" horiz-adv-x="1398" unicode="໓"/>
			<glyph d="M1054 1385H1175V1210Q1175 1104 1082 1040Q1025 1001 856 957Q693 914 516 869Q329 820 278 747T228 506V436Q228 86 407 86Q483 86 697 201Q652 285 652 375Q652 518 746 612T968 706Q1053 706 1106 671Q1163 630 1163 566Q1163 510 1124 474T1024 439Q890 439 883 583Q769 525 769 373Q769 309 796 254Q908 308 1002 308Q1099 308 1168 269Q1242 220 1242 146Q1242 74 1168 27Q1105 -12 1007 -12Q866 -12 747 116Q531 -12 409 -12Q211 -12 145 165Q107 267 107 496Q107 734 174 823Q246 920 476 974L720 1032Q914 1078 935 1087Q1054 1135 1054 1236ZM1022 616Q968 616 968 566Q968 515 1022 515Q1079 515 1079 566Q1079 616 1022 616ZM1002 220Q925 220 840 166Q923 74 1005 74Q1075 74 1108 102Q1134 129 1134 155Q1134 220 1002 220Z" horiz-adv-x="1349" unicode="໔"/>
			<glyph d="M1069 1385H1190V1288Q1190 1181 1115 1098Q1035 1018 878 1018Q802 946 563 868Q320 805 285 773Q228 724 228 530V436Q228 86 407 86Q483 86 697 203Q652 280 652 375Q652 518 744 612T976 706Q1055 706 1113 666Q1163 624 1163 564Q1163 508 1123 473T1022 439Q957 439 921 477T884 583Q831 559 800 510T769 373Q769 300 798 253Q900 308 1002 308Q1093 308 1164 271Q1242 217 1242 155Q1242 70 1174 31Q1111 -12 1007 -12Q865 -12 747 117Q525 -12 409 -12Q211 -12 145 168Q107 271 107 509Q107 696 151 781Q189 857 289 897Q410 934 532 972Q687 1018 727 1048Q661 1087 661 1164Q661 1214 704 1258T820 1303Q900 1303 945 1249Q976 1209 970 1128Q1069 1154 1069 1297ZM820 1217Q798 1217 780 1200T763 1164Q763 1143 784 1125T829 1104Q876 1130 876 1164Q876 1185 859 1201T820 1217ZM1022 616Q968 616 968 566Q968 515 1022 515Q1079 515 1079 566Q1079 616 1022 616ZM1012 220Q924 220 840 166Q924 74 1005 74Q1037 74 1074 82Q1134 106 1134 155Q1134 220 1012 220Z" horiz-adv-x="1349" unicode="໕"/>
			<glyph d="M876 1482Q936 1482 1017 1453L1392 1316L1339 1231L939 1375Q915 1384 876 1384Q829 1384 799 1360T770 1295Q770 1231 852 1203Q902 1184 976 1161Q1161 1098 1218 1069Q1373 1001 1453 861Q1533 723 1533 549Q1533 337 1421 175Q1290 -12 1071 -12Q923 -12 820 80Q714 -12 568 -12Q354 -12 226 140Q107 279 107 482Q107 675 209 843Q331 1042 529 1042Q587 1042 630 1001T674 907Q674 851 631 810T527 770Q422 770 383 868Q291 782 256 670Q228 575 228 480Q228 346 300 241Q399 86 568 86Q650 86 732 142Q645 224 645 341Q645 411 694 468T822 525Q893 525 941 470Q991 414 991 341Q991 222 901 141Q978 86 1071 86Q1218 86 1320 214Q1412 333 1412 549Q1403 929 1014 1039L859 1089Q649 1151 649 1289Q649 1370 712 1426T876 1482ZM525 957Q503 957 486 942T469 907Q469 886 486 870T525 855Q582 855 582 907Q582 957 525 957ZM820 423Q754 423 754 326Q754 263 820 197Q882 258 882 318Q882 420 820 423Z" horiz-adv-x="1640" unicode="໖"/>
			<glyph d="M285 1028Q402 1028 480 895Q760 1028 948 1028Q1162 1028 1276 893Q1380 770 1380 567V-355H1260V567Q1260 722 1187 819Q1098 930 948 930Q776 930 516 814Q569 677 569 483Q569 330 513 177Q444 -9 311 -9Q241 -9 203 26T165 127Q165 174 205 212T312 251Q351 251 403 226Q448 327 448 482Q448 658 406 778Q347 754 291 754Q218 754 173 792T128 891Q128 945 168 986T285 1028ZM285 946Q230 946 230 891Q230 869 246 850T295 831Q332 831 380 860Q340 946 285 946ZM306 178Q250 178 250 127Q250 76 306 76Q362 76 362 127Q362 147 345 162T306 178Z" horiz-adv-x="1486" unicode="໗"/>
			<glyph d="M452 1028Q502 1028 593 997T726 966Q772 966 866 997T1009 1028Q1197 1028 1269 883Q1317 784 1317 588V225Q1317 74 1212 -2Q1306 -50 1306 -144Q1306 -217 1247 -255T1109 -294Q1017 -294 964 -250T912 -138Q912 -95 946 -60Q890 -71 804 -109L446 -257Q375 -287 321 -287Q229 -287 168 -241T107 -123Q107 12 277 84L1117 392Q1196 422 1196 532Q1196 720 1184 785Q1174 837 1141 877Q1101 930 1021 930Q977 930 877 896T732 862Q676 862 586 893T437 924Q236 909 228 679Q228 539 341 481Q344 531 374 568Q417 612 483 612Q543 612 587 572T631 476Q631 423 590 381T476 340Q337 340 212 436Q107 528 107 678Q107 832 191 923Q289 1028 452 1028ZM481 527Q459 527 442 512T426 476Q426 425 481 425Q538 425 538 476Q538 527 481 527ZM1105 -59Q1023 -87 1023 -138Q1023 -200 1109 -200Q1194 -200 1194 -138Q1194 -82 1105 -59ZM1196 310L366 0Q228 -49 228 -118Q228 -181 302 -188Q364 -188 464 -145L795 -10Q919 42 1047 42Q1074 42 1092 39Q1196 97 1196 240Z" horiz-adv-x="1424" unicode="໘"/>
			<glyph d="M539 1028Q742 1028 848 926T954 644Q954 624 953 608L939 389Q938 373 938 362Q938 239 1018 162Q1106 86 1207 86Q1376 86 1466 214Q1532 334 1532 470Q1532 707 1383 989L1497 1028Q1653 696 1653 470Q1653 271 1543 137Q1420 -12 1209 -12Q1048 -12 930 91Q817 206 817 348Q817 363 818 378L832 605Q833 620 833 632Q833 780 753 856Q662 930 544 930Q391 930 306 833Q228 733 228 579Q228 304 385 158Q419 260 527 260Q588 260 631 219T674 123Q674 70 629 29T527 -12Q325 -12 204 200Q107 374 107 577Q107 779 211 898Q334 1028 539 1028ZM525 175Q503 175 486 159T469 123Q469 73 525 73Q582 73 582 123Q582 175 525 175Z" horiz-adv-x="1781" unicode="໙"/>
			<glyph d="M255 1028Q328 1028 367 987T406 879Q406 796 341 685Q269 555 269 439Q280 86 610 86Q924 86 924 490Q924 663 880 765Q803 718 739 718Q666 718 624 759T582 867Q582 936 629 982T755 1028Q858 1028 934 906Q1154 1028 1304 1028Q1532 1028 1641 878Q1734 750 1734 530Q1734 375 1663 206Q1809 86 1944 86Q2092 86 2187 196Q2273 308 2273 448Q2273 668 2065 970L2176 1028Q2290 840 2328 753Q2394 600 2394 453Q2394 253 2281 126Q2159 -12 1944 -12Q1776 -12 1611 115Q1568 46 1514 -8L1421 69Q1613 268 1613 531Q1613 664 1559 779Q1482 930 1304 930Q1176 930 974 817Q1044 641 1044 488Q1044 264 953 134Q845 -12 610 -12Q379 -12 261 110Q148 226 148 441Q148 579 248 748Q108 756 108 884Q108 938 153 983T255 1028ZM739 937Q716 937 700 918T684 874Q684 843 700 824T739 805Q776 805 837 847Q794 937 739 937ZM257 935Q201 935 201 884Q201 834 257 834Q313 834 313 884Q313 935 257 935Z" horiz-adv-x="2501" unicode="ໜ"/>
			<glyph d="M255 1028Q328 1028 367 986T407 877Q407 812 356 711Q269 562 269 439Q280 86 610 86Q924 86 924 490Q924 640 881 765Q801 718 742 718Q668 718 624 756T581 869Q579 936 627 982T750 1028Q860 1028 933 906Q1154 1028 1304 1028Q1734 1028 1734 538Q1734 371 1664 206Q1810 86 1944 86Q2110 86 2209 225Q2273 330 2273 461Q2273 654 2066 974L2176 1028Q2296 829 2328 759Q2394 612 2394 467Q2394 265 2281 132Q2158 -12 1944 -12Q1770 -12 1611 115Q1527 -12 1400 -12Q1324 -12 1278 37T1233 156Q1233 218 1278 266T1405 314Q1483 314 1556 269Q1613 386 1613 540Q1613 665 1560 775Q1483 930 1302 930Q1174 930 974 817Q1044 632 1044 488Q1044 264 952 134Q845 -12 610 -12Q379 -12 261 110Q148 226 148 441Q148 579 249 749Q106 757 108 884Q108 938 153 983T255 1028ZM739 938Q716 938 700 917T684 865Q684 844 700 824T739 805Q776 805 837 847Q794 938 739 938ZM1409 216Q1378 216 1361 196T1345 148Q1346 91 1405 90Q1456 89 1506 177Q1450 216 1409 216ZM257 935Q201 935 201 884Q201 834 257 834Q313 834 313 884Q313 935 257 935Z" horiz-adv-x="2501" unicode="ໝ"/>
			<glyph d="M0 1594H66V253H0Z" horiz-adv-x="66" unicode="‌"/>
			<glyph d="M-123 1883L33 1727L189 1883L234 1838L75 1682L234 1526L189 1481L63 1607V253H0V1604L-123 1481L-165 1526L-9 1682L-165 1838Z" horiz-adv-x="63" unicode="‍"/>
			<glyph d="M90 635H1014V506H90Z" horiz-adv-x="1104" unicode="‒"/>
			<glyph d="M0 640H1024V530H0Z" horiz-adv-x="1024" unicode="–"/>
			<glyph d="M0 640H2048V530H0Z" horiz-adv-x="2048" unicode="—"/>
			<glyph d="M0 635H2048V506H0Z" horiz-adv-x="2048" unicode="―"/>
			<glyph d="M256 1446H353L237 998H109Z" horiz-adv-x="453" unicode="‘"/>
			<glyph d="M229 1446H355L207 998H111Z" horiz-adv-x="453" unicode="’"/>
			<glyph d="M533 1446H629L511 998H385ZM256 1446H353L237 998H109Z" horiz-adv-x="729" unicode="“"/>
			<glyph d="M502 1446H631L484 998H387ZM229 1446H355L207 998H111Z" horiz-adv-x="729" unicode="”"/>
			<glyph d="M410 935Q461 935 506 915T584 862T637 784T657 688Q657 637 637 592T584 514T506 461T410 442Q359 442 314 461T236 514T183 592T164 688Q164 739 183 784T236 862T314 915T410 935Z" horiz-adv-x="821" unicode="•"/>
			<glyph d="M1195 175Q1215 175 1232 167T1262 146T1283 116T1291 79Q1291 37 1263 10T1195 -17Q1155 -17 1128 10T1101 79Q1101 119 1128 147T1195 175ZM714 175Q733 175 750 167T781 146T802 115T810 79Q810 38 782 10T714 -17Q674 -17 646 10T618 79Q618 99 625 116T646 146T677 167T714 175ZM234 175Q254 175 271 167T301 146T322 116T330 79Q330 38 302 10T234 -17Q194 -17 167 10T140 79Q140 119 167 147T234 175Z" horiz-adv-x="1432" unicode="…"/>
			<glyph d="M749 1458Q880 1458 988 1403V1271Q873 1346 739 1346Q672 1346 611 1317T501 1235T416 1103T360 926H880V814H344Q342 793 341 768T340 715Q340 687 340 658T343 603H880V491H357Q390 290 485 188T721 87Q850 87 988 177V51Q856 -24 710 -24Q612 -24 531 9T388 106T284 267T223 491H90V603H212Q210 623 209 645T208 692Q208 751 214 814H90V926H230Q253 1051 300 1150T415 1317T567 1422T749 1458Z" horiz-adv-x="1080" unicode="€"/>
			<glyph d="M932 968Q980 968 980 918Q980 868 932 868Q880 868 880 918Q880 968 932 968ZM784 1067Q832 1067 832 1016Q832 967 784 967Q732 967 732 1016Q732 1067 784 1067ZM1030 819Q1079 819 1079 770Q1079 719 1028 719Q979 719 979 770Q979 819 1030 819ZM1067 646Q1115 646 1115 596Q1115 546 1067 546Q1015 546 1015 596Q1015 646 1067 646ZM608 1102Q658 1102 658 1053Q658 1002 608 1002Q558 1002 558 1053Q558 1102 608 1102ZM434 1067Q485 1067 485 1016Q485 967 434 967Q385 967 385 1016Q385 1067 434 1067ZM1028 473Q1079 473 1079 422Q1079 373 1028 373Q979 373 979 422Q979 473 1028 473ZM287 968Q337 968 337 918Q337 868 287 868Q237 868 237 915Q237 968 287 968ZM932 323Q980 323 980 272Q980 223 932 223Q880 223 880 272Q880 323 932 323ZM784 226Q832 226 832 174Q832 126 784 126Q732 126 732 174Q732 226 784 226ZM188 819Q238 819 238 770Q238 719 190 719Q138 719 138 770Q138 819 188 819ZM154 646Q203 646 202 596Q203 546 154 546Q102 546 102 596Q102 646 154 646ZM608 190Q658 190 658 141Q658 90 608 90Q558 90 558 141Q558 190 608 190ZM188 473Q238 473 238 422Q238 373 188 373Q138 373 138 422Q138 473 188 473ZM434 226Q485 226 485 178Q485 126 434 126Q385 126 385 174Q385 226 434 226ZM287 323Q337 323 337 272Q337 223 287 223Q237 223 237 272Q237 323 287 323Z" horiz-adv-x="1217" unicode="◌"/>
			<glyph d="M284 1296H1480V100H284ZM408 1172V224H1356V1172Z" horiz-adv-x="1764" unicode="◻"/>
			<glyph d="M284 1294H1480V98H284Z" horiz-adv-x="1764" unicode="◼"/>
			<glyph d="M554 1045H1210V389H554ZM678 921V513H1086V921Z" horiz-adv-x="1764" unicode="◽"/>
			<glyph d="M554 1045H1210V389H554Z" horiz-adv-x="1764" unicode="◾"/>
		</font>
</defs>
</svg>
